<?xml version="1.0" encoding="UTF-8"?>
<!DOCTYPE svg PUBLIC "-//W3C//DTD SVG 1.1//EN" "http://www.w3.org/Graphics/SVG/1.1/DTD/svg11.dtd">
<svg xmlns="http://www.w3.org/2000/svg" version="1.1" width="228px" height="221px" style="shape-rendering:geometricPrecision; text-rendering:geometricPrecision; image-rendering:optimizeQuality; fill-rule:evenodd; clip-rule:evenodd" xmlns:xlink="http://www.w3.org/1999/xlink">
<g><path style="opacity:1" fill="#fdfdfd" d="M -0.5,-0.5 C 53.5,-0.5 107.5,-0.5 161.5,-0.5C 161.5,0.5 161.5,1.5 161.5,2.5C 151.802,1.0017 142.136,1.16837 132.5,3C 130.404,3.73653 128.737,4.90319 127.5,6.5C 113.408,12.4358 99.7416,19.1024 86.5,26.5C 79.7984,23.0629 73.9651,24.0629 69,29.5C 68.6667,29.1667 68.3333,28.8333 68,28.5C 66.6283,29.9101 65.795,31.5767 65.5,33.5C 65.5172,35.5648 65.8505,37.5648 66.5,39.5C 62.2042,41.315 58.2042,43.6483 54.5,46.5C 51.979,42.6457 49.3123,38.8124 46.5,35C 44.1667,34.3333 41.8333,34.3333 39.5,35C 38.1772,35.8159 37.5106,36.9826 37.5,38.5C 35.6295,45.5822 36.6295,52.2489 40.5,58.5C 38.071,59.2648 36.7377,60.9315 36.5,63.5C 28.4976,69.2829 24.9976,77.2829 26,87.5C 28.7292,93.2242 33.2292,96.7242 39.5,98C 44.1548,98.4992 48.8215,98.6658 53.5,98.5C 53.32,102.286 54.32,105.619 56.5,108.5C 48.1935,115.304 40.0268,122.304 32,129.5C 25.0608,136.809 20.8941,145.476 19.5,155.5C 20.9156,161.573 23.9156,166.74 28.5,171C 27.944,171.383 27.6107,171.883 27.5,172.5C 24.5558,171.412 21.5558,171.412 18.5,172.5C 18.5,174.167 18.5,175.833 18.5,177.5C 17.5,177.5 16.5,177.5 15.5,177.5C 14.791,176.596 13.791,176.263 12.5,176.5C 9.09284,177.716 5.75951,179.216 2.5,181C 2.08527,183.026 1.08527,184.526 -0.5,185.5C -0.5,123.5 -0.5,61.5 -0.5,-0.5 Z"/></g>
<g><path style="opacity:1" fill="#fcfdfd" d="M 161.5,-0.5 C 183.5,-0.5 205.5,-0.5 227.5,-0.5C 227.5,73.1667 227.5,146.833 227.5,220.5C 151.5,220.5 75.5,220.5 -0.5,220.5C -0.5,208.833 -0.5,197.167 -0.5,185.5C 1.08527,184.526 2.08527,183.026 2.5,181C 5.75951,179.216 9.09284,177.716 12.5,176.5C 11.7375,177.268 10.7375,177.768 9.5,178C 10.2524,178.671 10.5858,179.504 10.5,180.5C 6.55112,181.292 4.21778,183.626 3.5,187.5C 3.743,190.656 4.57633,193.656 6,196.5C 11.3482,198.758 16.5148,201.424 21.5,204.5C 24.7683,205.487 28.1016,205.82 31.5,205.5C 31.5,206.5 31.5,207.5 31.5,208.5C 81.3032,218.079 131.303,218.913 181.5,211C 193.671,208.502 205.337,204.502 216.5,199C 226.97,188.815 225.303,180.982 211.5,175.5C 211.167,175.5 210.833,175.5 210.5,175.5C 208.708,172.498 206.041,170.665 202.5,170C 198.93,169.738 195.597,169.571 192.5,169.5C 198.212,163.393 201.212,156.059 201.5,147.5C 201.714,145.856 201.38,144.356 200.5,143C 197.118,139.769 193.118,138.269 188.5,138.5C 191.305,137.681 194.305,137.181 197.5,137C 204.394,129.567 208.394,120.734 209.5,110.5C 209.124,107.99 208.29,105.657 207,103.5C 203.778,100.612 200.278,98.112 196.5,96C 188.479,95.8316 180.479,95.3316 172.5,94.5C 174.622,92.2014 176.955,90.2014 179.5,88.5C 183.466,89.1621 187.466,89.4955 191.5,89.5C 198.369,89.4623 200.869,86.129 199,79.5C 197.334,77.0043 195.5,74.671 193.5,72.5C 201.4,60.1169 198.066,52.2836 183.5,49C 176.833,48.3333 170.167,48.3333 163.5,49C 154.823,51.0789 146.49,53.9122 138.5,57.5C 138.672,56.5084 138.338,55.8417 137.5,55.5C 137.5,54.5 137.5,53.5 137.5,52.5C 139.3,51.5266 141.134,50.5266 143,49.5C 149.656,41.1785 156.656,33.1785 164,25.5C 170.566,13.8621 167.4,6.36207 154.5,3C 150.833,2.33333 147.167,2.33333 143.5,3C 138.226,4.48103 132.893,5.6477 127.5,6.5C 128.737,4.90319 130.404,3.73653 132.5,3C 142.136,1.16837 151.802,1.0017 161.5,2.5C 161.5,1.5 161.5,0.5 161.5,-0.5 Z"/></g>
<g><path style="opacity:1" fill="#9bddf8" d="M 137.5,52.5 C 135.182,48.8786 133.848,44.8786 133.5,40.5C 141.758,37.6461 144.425,31.9794 141.5,23.5C 138.204,21.8986 134.871,20.2319 131.5,18.5C 129.181,19.0639 126.847,19.5639 124.5,20C 122.393,21.2635 121.393,23.0968 121.5,25.5C 121.5,25.8333 121.5,26.1667 121.5,26.5C 120.833,26.5 120.5,26.8333 120.5,27.5C 111.225,27.0121 101.891,27.1787 92.5,28C 91.5842,28.2784 90.9175,28.7784 90.5,29.5C 89.5326,30.8062 88.1993,31.4729 86.5,31.5C 86.5,30.8333 86.5,30.1667 86.5,29.5C 86.5,28.5 86.5,27.5 86.5,26.5C 99.7416,19.1024 113.408,12.4358 127.5,6.5C 132.893,5.6477 138.226,4.48103 143.5,3C 147.167,2.33333 150.833,2.33333 154.5,3C 167.4,6.36207 170.566,13.8621 164,25.5C 156.656,33.1785 149.656,41.1785 143,49.5C 141.134,50.5266 139.3,51.5266 137.5,52.5 Z"/></g>
<g><path style="opacity:1" fill="#f49671" d="M 82.5,28.5 C 81.1169,34.8831 77.2836,37.5498 71,36.5C 69.699,36.6387 68.8656,37.3054 68.5,38.5C 67.6618,38.8417 67.3284,39.5084 67.5,40.5C 66.8333,40.5 66.5,40.1667 66.5,39.5C 65.8505,37.5648 65.5172,35.5648 65.5,33.5C 66.5832,33.5394 67.5832,33.8728 68.5,34.5C 70.0093,32.3436 71.0093,30.0103 71.5,27.5C 75.4516,25.9004 79.1183,26.2337 82.5,28.5 Z"/></g>
<g><path style="opacity:1" fill="#f095a5" d="M 86.5,26.5 C 86.5,27.5 86.5,28.5 86.5,29.5C 85.0413,29.5674 83.7079,29.2341 82.5,28.5C 79.1183,26.2337 75.4516,25.9004 71.5,27.5C 71.0093,30.0103 70.0093,32.3436 68.5,34.5C 67.5832,33.8728 66.5832,33.5394 65.5,33.5C 65.795,31.5767 66.6283,29.9101 68,28.5C 68.3333,28.8333 68.6667,29.1667 69,29.5C 73.9651,24.0629 79.7984,23.0629 86.5,26.5 Z"/></g>
<g><path style="opacity:1" fill="#f68aaa" d="M 137.5,52.5 C 137.5,53.5 137.5,54.5 137.5,55.5C 137.833,58.1667 138.167,60.8333 138.5,63.5C 137.167,63.5 135.833,63.5 134.5,63.5C 134.913,57.9513 134.08,52.618 132,47.5C 131.667,49.5 131.333,51.5 131,53.5C 128.097,48.0459 124.097,47.0459 119,50.5C 117.038,50.0306 115.205,50.6973 113.5,52.5C 115.167,52.5 116.833,52.5 118.5,52.5C 118.551,55.0626 118.217,57.7293 117.5,60.5C 115.998,61.0831 114.665,61.9164 113.5,63C 116.351,65.2482 119.685,66.0815 123.5,65.5C 122.934,67.0783 121.934,68.4116 120.5,69.5C 117.418,70.6345 114.418,71.6345 111.5,72.5C 108.663,69.8687 107.33,66.5354 107.5,62.5C 108.287,60.8958 109.62,60.2291 111.5,60.5C 111.5,58.5 111.5,56.5 111.5,54.5C 111.334,48.1579 111.5,41.8246 112,35.5C 114.912,33.8508 116.745,31.5174 117.5,28.5C 118.791,28.7373 119.791,28.404 120.5,27.5C 120.5,26.8333 120.833,26.5 121.5,26.5C 122.288,29.6209 124.288,31.2876 127.5,31.5C 127.826,33.6607 128.826,35.4941 130.5,37C 133.033,36.3889 135.7,35.8889 138.5,35.5C 138.5,34.5 138.5,33.5 138.5,32.5C 139.552,32.6495 140.552,32.4828 141.5,32C 136.642,22.3164 129.976,20.1497 121.5,25.5C 121.393,23.0968 122.393,21.2635 124.5,20C 126.847,19.5639 129.181,19.0639 131.5,18.5C 134.871,20.2319 138.204,21.8986 141.5,23.5C 144.425,31.9794 141.758,37.6461 133.5,40.5C 133.848,44.8786 135.182,48.8786 137.5,52.5 Z"/></g>
<g><path style="opacity:1" fill="#f38361" d="M 121.5,26.5 C 121.5,26.1667 121.5,25.8333 121.5,25.5C 129.976,20.1497 136.642,22.3164 141.5,32C 140.552,32.4828 139.552,32.6495 138.5,32.5C 138.5,33.5 138.5,34.5 138.5,35.5C 135.7,35.8889 133.033,36.3889 130.5,37C 128.826,35.4941 127.826,33.6607 127.5,31.5C 124.288,31.2876 122.288,29.6209 121.5,26.5 Z"/></g>
<g><path style="opacity:1" fill="#faacc6" d="M 120.5,27.5 C 119.791,28.404 118.791,28.7373 117.5,28.5C 116.745,31.5174 114.912,33.8508 112,35.5C 111.5,41.8246 111.334,48.1579 111.5,54.5C 107.833,54.5 104.167,54.5 100.5,54.5C 98.7149,49.9325 97.8816,44.9325 98,39.5C 97,37.1667 95.3333,35.5 93,34.5C 92.9005,32.3474 92.0672,30.6808 90.5,29.5C 90.9175,28.7784 91.5842,28.2784 92.5,28C 101.891,27.1787 111.225,27.0121 120.5,27.5 Z"/></g>
<g><path style="opacity:1" fill="#f46e53" d="M 82.5,28.5 C 83.7079,29.2341 85.0413,29.5674 86.5,29.5C 86.5,30.1667 86.5,30.8333 86.5,31.5C 84.9031,35.1894 82.9031,38.6894 80.5,42C 75.5994,43.407 71.5994,42.2403 68.5,38.5C 68.8656,37.3054 69.699,36.6387 71,36.5C 77.2836,37.5498 81.1169,34.8831 82.5,28.5 Z"/></g>
<g><path style="opacity:1" fill="#f86b93" d="M 45.5,63.5 C 44.7611,63.631 44.0944,63.4643 43.5,63C 42.6006,61.3484 41.6006,59.8484 40.5,58.5C 36.6295,52.2489 35.6295,45.5822 37.5,38.5C 39.0518,37.3782 40.7184,36.8782 42.5,37C 41.2815,38.4382 40.6148,40.1049 40.5,42C 41.7678,47.6225 43.7678,52.9559 46.5,58C 45.572,58.3879 44.9054,59.0546 44.5,60C 44.9891,61.1385 45.3225,62.3052 45.5,63.5 Z"/></g>
<g><path style="opacity:1" fill="#9bdef7" d="M 193.5,72.5 C 192.508,72.6716 191.842,72.3382 191.5,71.5C 188.898,70.3389 186.231,69.1723 183.5,68C 168.468,66.428 153.801,67.7613 139.5,72C 138.944,72.3826 138.611,72.8826 138.5,73.5C 136.821,73.7148 135.821,73.0481 135.5,71.5C 136.6,70.3951 137.267,69.0618 137.5,67.5C 138.117,67.3893 138.617,67.056 139,66.5C 139.736,63.408 139.569,60.408 138.5,57.5C 146.49,53.9122 154.823,51.0789 163.5,49C 170.167,48.3333 176.833,48.3333 183.5,49C 198.066,52.2836 201.4,60.1169 193.5,72.5 Z"/></g>
<g><path style="opacity:1" fill="#a74416" d="M 100.5,54.5 C 104.167,54.5 107.833,54.5 111.5,54.5C 111.5,56.5 111.5,58.5 111.5,60.5C 109.62,60.2291 108.287,60.8958 107.5,62.5C 105.5,62.5 103.5,62.5 101.5,62.5C 96.7864,60.1051 96.4531,57.4385 100.5,54.5 Z"/></g>
<g><path style="opacity:1" fill="#f89fb7" d="M 137.5,55.5 C 138.338,55.8417 138.672,56.5084 138.5,57.5C 139.569,60.408 139.736,63.408 139,66.5C 138.617,67.056 138.117,67.3893 137.5,67.5C 137.179,65.9519 136.179,65.2852 134.5,65.5C 134.767,68.775 133.767,69.6084 131.5,68C 129.527,67.5045 127.527,67.3379 125.5,67.5C 125.785,65.712 125.452,64.0453 124.5,62.5C 123.614,63.325 123.281,64.325 123.5,65.5C 119.685,66.0815 116.351,65.2482 113.5,63C 114.665,61.9164 115.998,61.0831 117.5,60.5C 118.217,57.7293 118.551,55.0626 118.5,52.5C 116.833,52.5 115.167,52.5 113.5,52.5C 115.205,50.6973 117.038,50.0306 119,50.5C 124.097,47.0459 128.097,48.0459 131,53.5C 131.333,51.5 131.667,49.5 132,47.5C 134.08,52.618 134.913,57.9513 134.5,63.5C 135.833,63.5 137.167,63.5 138.5,63.5C 138.167,60.8333 137.833,58.1667 137.5,55.5 Z"/></g>
<g><path style="opacity:1" fill="#e7b7cd" d="M 191.5,71.5 C 187.392,72.2712 183.392,71.7712 179.5,70C 165.625,68.9434 151.959,70.1101 138.5,73.5C 138.611,72.8826 138.944,72.3826 139.5,72C 153.801,67.7613 168.468,66.428 183.5,68C 186.231,69.1723 188.898,70.3389 191.5,71.5 Z"/></g>
<g><path style="opacity:1" fill="#f68daa" d="M 191.5,71.5 C 191.842,72.3382 192.508,72.6716 193.5,72.5C 195.5,74.671 197.334,77.0043 199,79.5C 200.869,86.129 198.369,89.4623 191.5,89.5C 193.947,87.8951 196.28,86.0618 198.5,84C 197.513,81.0059 196.18,80.8392 194.5,83.5C 187.893,83.1721 181.559,81.6721 175.5,79C 167.794,77.8549 160.128,76.8549 152.5,76C 153.888,76.8893 153.722,77.3893 152,77.5C 149.849,76.2679 147.683,76.2679 145.5,77.5C 141.979,80.3968 137.979,81.5634 133.5,81C 132.643,80.3109 131.977,79.4776 131.5,78.5C 132.688,75.9787 134.022,73.6453 135.5,71.5C 135.821,73.0481 136.821,73.7148 138.5,73.5C 151.959,70.1101 165.625,68.9434 179.5,70C 183.392,71.7712 187.392,72.2712 191.5,71.5 Z"/></g>
<g><path style="opacity:1" fill="#f86c92" d="M 137.5,67.5 C 137.267,69.0618 136.6,70.3951 135.5,71.5C 134.022,73.6453 132.688,75.9787 131.5,78.5C 131.977,79.4776 132.643,80.3109 133.5,81C 137.979,81.5634 141.979,80.3968 145.5,77.5C 147.683,76.2679 149.849,76.2679 152,77.5C 153.722,77.3893 153.888,76.8893 152.5,76C 160.128,76.8549 167.794,77.8549 175.5,79C 181.559,81.6721 187.893,83.1721 194.5,83.5C 196.18,80.8392 197.513,81.0059 198.5,84C 196.28,86.0618 193.947,87.8951 191.5,89.5C 187.466,89.4955 183.466,89.1621 179.5,88.5C 166.734,84.8818 153.734,84.5484 140.5,87.5C 136.295,83.109 131.295,82.2756 125.5,85C 123.959,86.3712 122.625,87.8712 121.5,89.5C 120.849,90.0906 120.182,90.7573 119.5,91.5C 112.025,89.1265 104.358,88.1265 96.5,88.5C 95.8902,87.609 95.5569,86.609 95.5,85.5C 100.833,85.8333 106.167,86.1667 111.5,86.5C 111.351,85.448 111.517,84.448 112,83.5C 114.156,85.4951 116.656,86.8284 119.5,87.5C 119.884,85.0706 120.551,82.7373 121.5,80.5C 119.063,80.7563 116.729,81.4229 114.5,82.5C 113.833,82.1667 113.167,81.8333 112.5,81.5C 110.335,82.4985 108.168,83.4985 106,84.5C 101.519,83.2124 97.0192,81.8791 92.5,80.5C 93,80.1667 93.5,79.8333 94,79.5C 99.9736,81.4094 105.807,81.4094 111.5,79.5C 111.5,78.1667 111.5,76.8333 111.5,75.5C 116.113,75.5179 120.113,74.0179 123.5,71C 119.972,71.8184 116.306,72.6517 112.5,73.5C 111.893,73.3764 111.56,73.0431 111.5,72.5C 114.418,71.6345 117.418,70.6345 120.5,69.5C 121.934,68.4116 122.934,67.0783 123.5,65.5C 123.281,64.325 123.614,63.325 124.5,62.5C 125.452,64.0453 125.785,65.712 125.5,67.5C 127.527,67.3379 129.527,67.5045 131.5,68C 133.767,69.6084 134.767,68.775 134.5,65.5C 136.179,65.2852 137.179,65.9519 137.5,67.5 Z"/></g>
<g><path style="opacity:1" fill="#f590ad" d="M 90.5,29.5 C 92.0672,30.6808 92.9005,32.3474 93,34.5C 95.3333,35.5 97,37.1667 98,39.5C 97.8816,44.9325 98.7149,49.9325 100.5,54.5C 96.4531,57.4385 96.7864,60.1051 101.5,62.5C 102.537,64.7375 102.703,67.0709 102,69.5C 97.4401,72.6222 92.7734,72.9555 88,70.5C 87.0799,67.6917 87.9133,65.5251 90.5,64C 88.5355,63.376 86.8689,63.876 85.5,65.5C 84.8108,67.444 84.3108,69.444 84,71.5C 81.841,70.8033 79.6743,71.1366 77.5,72.5C 76.5344,70.604 76.2011,68.604 76.5,66.5C 75.5,66.5 74.5,66.5 73.5,66.5C 73.8588,68.7659 73.1922,70.5993 71.5,72C 74.4652,73.7326 76.4652,76.2326 77.5,79.5C 73.4356,78.7907 69.4356,78.7907 65.5,79.5C 65.0473,74.2393 62.0473,71.7393 56.5,72C 56.9574,71.586 57.2907,71.086 57.5,70.5C 55.8333,68.5 54.1667,66.5 52.5,64.5C 51.8333,65.1667 51.1667,65.8333 50.5,66.5C 49.2742,64.7221 47.6075,63.7221 45.5,63.5C 45.3225,62.3052 44.9891,61.1385 44.5,60C 44.9054,59.0546 45.572,58.3879 46.5,58C 43.7678,52.9559 41.7678,47.6225 40.5,42C 40.6148,40.1049 41.2815,38.4382 42.5,37C 40.7184,36.8782 39.0518,37.3782 37.5,38.5C 37.5106,36.9826 38.1772,35.8159 39.5,35C 41.8333,34.3333 44.1667,34.3333 46.5,35C 49.3123,38.8124 51.979,42.6457 54.5,46.5C 58.5718,55.4183 64.4051,63.0849 72,69.5C 70.622,60.8983 72.7887,53.2316 78.5,46.5C 73.7269,46.2846 70.0603,44.2846 67.5,40.5C 67.3284,39.5084 67.6618,38.8417 68.5,38.5C 71.5994,42.2403 75.5994,43.407 80.5,42C 82.9031,38.6894 84.9031,35.1894 86.5,31.5C 88.1993,31.4729 89.5326,30.8062 90.5,29.5 Z"/></g>
<g><path style="opacity:1" fill="#98dff4" d="M 66.5,39.5 C 66.5,40.1667 66.8333,40.5 67.5,40.5C 70.0603,44.2846 73.7269,46.2846 78.5,46.5C 72.7887,53.2316 70.622,60.8983 72,69.5C 64.4051,63.0849 58.5718,55.4183 54.5,46.5C 58.2042,43.6483 62.2042,41.315 66.5,39.5 Z"/></g>
<g><path style="opacity:1" fill="#f66680" d="M 101.5,62.5 C 103.5,62.5 105.5,62.5 107.5,62.5C 107.33,66.5354 108.663,69.8687 111.5,72.5C 111.56,73.0431 111.893,73.3764 112.5,73.5C 116.306,72.6517 119.972,71.8184 123.5,71C 120.113,74.0179 116.113,75.5179 111.5,75.5C 111.5,76.8333 111.5,78.1667 111.5,79.5C 105.807,81.4094 99.9736,81.4094 94,79.5C 93.5,79.8333 93,80.1667 92.5,80.5C 97.0192,81.8791 101.519,83.2124 106,84.5C 108.168,83.4985 110.335,82.4985 112.5,81.5C 113.167,81.8333 113.833,82.1667 114.5,82.5C 116.729,81.4229 119.063,80.7563 121.5,80.5C 120.551,82.7373 119.884,85.0706 119.5,87.5C 116.656,86.8284 114.156,85.4951 112,83.5C 111.517,84.448 111.351,85.448 111.5,86.5C 106.167,86.1667 100.833,85.8333 95.5,85.5C 93.3926,84.5318 91.0593,84.1984 88.5,84.5C 84.7104,84.9923 84.0437,84.159 86.5,82C 83.2793,81.7222 80.2793,80.8889 77.5,79.5C 76.4652,76.2326 74.4652,73.7326 71.5,72C 73.1922,70.5993 73.8588,68.7659 73.5,66.5C 74.5,66.5 75.5,66.5 76.5,66.5C 76.2011,68.604 76.5344,70.604 77.5,72.5C 79.6743,71.1366 81.841,70.8033 84,71.5C 84.3108,69.444 84.8108,67.444 85.5,65.5C 86.8689,63.876 88.5355,63.376 90.5,64C 87.9133,65.5251 87.0799,67.6917 88,70.5C 92.7734,72.9555 97.4401,72.6222 102,69.5C 102.703,67.0709 102.537,64.7375 101.5,62.5 Z"/></g>
<g><path style="opacity:1" fill="#840f0b" d="M 104.5,70.5 C 105.815,71.4756 107.148,72.4756 108.5,73.5C 109.833,74.5 109.833,75.5 108.5,76.5C 105.731,75.704 103.064,75.3706 100.5,75.5C 101.857,73.8144 103.19,72.1477 104.5,70.5 Z"/></g>
<g><path style="opacity:1" fill="#9addfa" d="M 40.5,58.5 C 41.6006,59.8484 42.6006,61.3484 43.5,63C 44.0944,63.4643 44.7611,63.631 45.5,63.5C 45.3505,64.552 45.5172,65.552 46,66.5C 55.1789,75.6594 65.6789,82.6594 77.5,87.5C 70.3685,89.9284 63.0352,92.0951 55.5,94C 53.8934,95.049 53.2267,96.549 53.5,98.5C 48.8215,98.6658 44.1548,98.4992 39.5,98C 33.2292,96.7242 28.7292,93.2242 26,87.5C 24.9976,77.2829 28.4976,69.2829 36.5,63.5C 36.7377,60.9315 38.071,59.2648 40.5,58.5 Z"/></g>
<g><path style="opacity:1" fill="#f4648a" d="M 45.5,63.5 C 47.6075,63.7221 49.2742,64.7221 50.5,66.5C 51.1667,65.8333 51.8333,65.1667 52.5,64.5C 54.1667,66.5 55.8333,68.5 57.5,70.5C 57.2907,71.086 56.9574,71.586 56.5,72C 62.0473,71.7393 65.0473,74.2393 65.5,79.5C 69.4356,78.7907 73.4356,78.7907 77.5,79.5C 80.2793,80.8889 83.2793,81.7222 86.5,82C 84.0437,84.159 84.7104,84.9923 88.5,84.5C 85.1456,86.2576 81.479,87.2576 77.5,87.5C 65.6789,82.6594 55.1789,75.6594 46,66.5C 45.5172,65.552 45.3505,64.552 45.5,63.5 Z"/></g>
<g><path style="opacity:1" fill="#444695" d="M 140.5,87.5 C 141.85,90.7075 143.016,94.0409 144,97.5C 146.679,93.4876 150.012,90.1542 154,87.5C 161.896,89.0428 165.562,93.7094 165,101.5C 161.5,104.333 158,107.167 154.5,110C 153.255,110.791 151.922,111.291 150.5,111.5C 152.561,108.276 155.394,105.943 159,104.5C 159.483,103.552 159.649,102.552 159.5,101.5C 162.243,101.923 163.576,100.756 163.5,98C 163.302,94.599 161.635,92.2657 158.5,91C 156.635,89.6986 154.635,89.3653 152.5,90C 150.082,94.0059 147.082,97.5059 143.5,100.5C 141.841,97.5263 140.508,94.5263 139.5,91.5C 139.703,89.6096 139.037,88.1096 137.5,87C 133.833,86.3333 130.167,86.3333 126.5,87C 125.101,88.0616 124.101,89.395 123.5,91C 125.255,94.3419 126.588,97.8419 127.5,101.5C 125.167,98.5 122.5,95.8333 119.5,93.5C 121.176,92.8166 121.843,91.4832 121.5,89.5C 122.625,87.8712 123.959,86.3712 125.5,85C 131.295,82.2756 136.295,83.109 140.5,87.5 Z"/></g>
<g><path style="opacity:1" fill="#d3a7c8" d="M 96.5,88.5 C 104.358,88.1265 112.025,89.1265 119.5,91.5C 120.182,90.7573 120.849,90.0906 121.5,89.5C 121.843,91.4832 121.176,92.8166 119.5,93.5C 119.082,92.7784 118.416,92.2784 117.5,92C 112.798,91.1717 108.131,91.3384 103.5,92.5C 104,92.8333 104.5,93.1667 105,93.5C 108.646,92.2458 112.146,92.2458 115.5,93.5C 110.7,93.3497 106.033,94.0164 101.5,95.5C 100.328,94.2947 98.9948,94.2947 97.5,95.5C 96.5258,93.2573 96.1924,90.924 96.5,88.5 Z"/></g>
<g><path style="opacity:1" fill="#1c2793" d="M 119.5,93.5 C 118.167,93.5 116.833,93.5 115.5,93.5C 112.146,92.2458 108.646,92.2458 105,93.5C 104.5,93.1667 104,92.8333 103.5,92.5C 108.131,91.3384 112.798,91.1717 117.5,92C 118.416,92.2784 119.082,92.7784 119.5,93.5 Z"/></g>
<g><path style="opacity:1" fill="#9adefa" d="M 179.5,88.5 C 176.955,90.2014 174.622,92.2014 172.5,94.5C 180.479,95.3316 188.479,95.8316 196.5,96C 200.278,98.112 203.778,100.612 207,103.5C 208.29,105.657 209.124,107.99 209.5,110.5C 208.394,120.734 204.394,129.567 197.5,137C 194.305,137.181 191.305,137.681 188.5,138.5C 186.572,140.113 184.238,141.113 181.5,141.5C 180.156,143.529 178.823,145.529 177.5,147.5C 170.594,138.322 161.26,133.322 149.5,132.5C 149.58,129.219 148.913,126.219 147.5,123.5C 147.032,119.064 148.032,115.064 150.5,111.5C 151.922,111.291 153.255,110.791 154.5,110C 158,107.167 161.5,104.333 165,101.5C 165.562,93.7094 161.896,89.0428 154,87.5C 150.012,90.1542 146.679,93.4876 144,97.5C 143.016,94.0409 141.85,90.7075 140.5,87.5C 153.734,84.5484 166.734,84.8818 179.5,88.5 Z"/></g>
<g><path style="opacity:1" fill="#9bd129" d="M 139.5,91.5 C 139.567,93.4008 139.233,95.2341 138.5,97C 139.707,98.3002 140.374,99.8002 140.5,101.5C 137.557,101.647 134.724,102.313 132,103.5C 131.098,103.257 130.265,102.923 129.5,102.5C 128.833,102.167 128.167,101.833 127.5,101.5C 126.588,97.8419 125.255,94.3419 123.5,91C 124.101,89.395 125.101,88.0616 126.5,87C 130.167,86.3333 133.833,86.3333 137.5,87C 139.037,88.1096 139.703,89.6096 139.5,91.5 Z"/></g>
<g><path style="opacity:1" fill="#e82326" d="M 92.5,97.5 C 89.8333,97.8333 87.1667,98.1667 84.5,98.5C 84.8816,103.092 85.8816,107.425 87.5,111.5C 87.3429,117.429 88.0095,123.262 89.5,129C 87.9345,134.057 84.6012,135.891 79.5,134.5C 77.0402,124.202 74.7069,113.869 72.5,103.5C 67.5004,104.337 62.5004,104.837 57.5,105C 56.1336,102.003 55.467,98.836 55.5,95.5C 56.5,95.5 57.5,95.5 58.5,95.5C 63.8065,94.9474 68.8065,93.6141 73.5,91.5C 77.4169,91.0244 81.0835,90.0244 84.5,88.5C 87.4485,87.9874 90.2819,87.9874 93,88.5C 93.5,90.5 94,92.5 94.5,94.5C 94.0576,95.7387 93.3909,96.7387 92.5,97.5 Z"/></g>
<g><path style="opacity:1" fill="#f9c621" d="M 115.5,93.5 C 116.833,93.5 118.167,93.5 119.5,93.5C 122.5,95.8333 125.167,98.5 127.5,101.5C 127.5,102.167 127.5,102.833 127.5,103.5C 127.5,104.167 127.5,104.833 127.5,105.5C 123.18,104.749 119.847,106.083 117.5,109.5C 117.5,108.833 117.167,108.5 116.5,108.5C 115.903,107.861 115.07,107.528 114,107.5C 111.962,109.037 109.795,110.37 107.5,111.5C 105.516,111.383 103.85,112.05 102.5,113.5C 98.2602,111.437 96.0936,112.77 96,117.5C 95.7167,114.258 94.8834,113.924 93.5,116.5C 90.828,114.575 89.828,111.908 90.5,108.5C 91.0447,106.407 91.878,104.407 93,102.5C 95.1871,99.3309 98.0205,96.9975 101.5,95.5C 106.033,94.0164 110.7,93.3497 115.5,93.5 Z"/></g>
<g><path style="opacity:1" fill="#48369f" d="M 116.5,108.5 C 116.109,112.221 114.442,115.221 111.5,117.5C 109.442,118.933 107.108,119.6 104.5,119.5C 104.5,118.5 104.5,117.5 104.5,116.5C 105.241,114.646 106.241,112.979 107.5,111.5C 109.795,110.37 111.962,109.037 114,107.5C 115.07,107.528 115.903,107.861 116.5,108.5 Z"/></g>
<g><path style="opacity:1" fill="#edcbcd" d="M 127.5,103.5 C 129.017,105.462 129.684,107.795 129.5,110.5C 129.493,112.369 129.16,114.036 128.5,115.5C 128.747,112.061 128.414,108.728 127.5,105.5C 127.5,104.833 127.5,104.167 127.5,103.5 Z"/></g>
<g><path style="opacity:1" fill="#403790" d="M 127.5,101.5 C 128.167,101.833 128.833,102.167 129.5,102.5C 130.252,104.761 131.252,106.927 132.5,109C 132.057,110.825 131.723,112.658 131.5,114.5C 130.219,118.975 129.219,123.642 128.5,128.5C 128.511,130.045 128.844,131.378 129.5,132.5C 131.031,134.68 133.198,135.68 136,135.5C 138.221,135.607 140.054,134.94 141.5,133.5C 142.323,130.539 142.99,127.539 143.5,124.5C 144.117,124.389 144.617,124.056 145,123.5C 145.671,119.324 146.838,115.324 148.5,111.5C 149.167,111.5 149.833,111.5 150.5,111.5C 148.032,115.064 147.032,119.064 147.5,123.5C 144.952,126.614 143.452,130.281 143,134.5C 141.693,135.772 140.193,136.772 138.5,137.5C 138.863,138.183 139.196,138.85 139.5,139.5C 138.833,139.5 138.167,139.5 137.5,139.5C 131.758,135.323 125.425,134.489 118.5,137C 115.734,138.371 113.401,140.204 111.5,142.5C 110.833,142.5 110.5,142.167 110.5,141.5C 114.871,136.309 120.538,133.976 127.5,134.5C 127.665,130.818 127.499,127.152 127,123.5C 121.635,130.436 114.802,134.436 106.5,135.5C 103.833,135.5 101.167,135.5 98.5,135.5C 96.6397,134.061 94.973,132.395 93.5,130.5C 93.9377,129.494 94.6043,129.494 95.5,130.5C 95.8417,131.338 96.5084,131.672 97.5,131.5C 99.2897,132.997 101.456,133.664 104,133.5C 106.821,133.592 109.321,132.926 111.5,131.5C 120.396,129.604 126.063,124.271 128.5,115.5C 129.16,114.036 129.493,112.369 129.5,110.5C 129.684,107.795 129.017,105.462 127.5,103.5C 127.5,102.833 127.5,102.167 127.5,101.5 Z"/></g>
<g><path style="opacity:1" fill="#a6b1b3" d="M 148.5,111.5 C 146.838,115.324 145.671,119.324 145,123.5C 144.617,124.056 144.117,124.389 143.5,124.5C 144.106,120.578 145.106,116.745 146.5,113C 146.836,111.97 147.503,111.47 148.5,111.5 Z"/></g>
<g><path style="opacity:1" fill="#f16e90" d="M 69.5,107.5 C 72.308,115.482 74.6413,123.649 76.5,132C 75.7875,133.442 74.6209,134.275 73,134.5C 69.8345,133.723 67.3345,132.056 65.5,129.5C 64.5721,121.603 65.9055,114.27 69.5,107.5 Z"/></g>
<g><path style="opacity:1" fill="#68a61b" d="M 150.5,111.5 C 149.833,111.5 149.167,111.5 148.5,111.5C 147.503,111.47 146.836,111.97 146.5,113C 145.106,116.745 144.106,120.578 143.5,124.5C 142.99,127.539 142.323,130.539 141.5,133.5C 137.434,133.693 133.434,133.36 129.5,132.5C 130.557,126.547 131.224,120.547 131.5,114.5C 131.723,112.658 132.057,110.825 132.5,109C 131.252,106.927 130.252,104.761 129.5,102.5C 130.265,102.923 131.098,103.257 132,103.5C 134.724,102.313 137.557,101.647 140.5,101.5C 140.374,99.8002 139.707,98.3002 138.5,97C 139.233,95.2341 139.567,93.4008 139.5,91.5C 140.508,94.5263 141.841,97.5263 143.5,100.5C 147.082,97.5059 150.082,94.0059 152.5,90C 154.635,89.3653 156.635,89.6986 158.5,91C 161.635,92.2657 163.302,94.599 163.5,98C 163.576,100.756 162.243,101.923 159.5,101.5C 159.649,102.552 159.483,103.552 159,104.5C 155.394,105.943 152.561,108.276 150.5,111.5 Z"/></g>
<g><path style="opacity:1" fill="#f89c20" d="M 127.5,105.5 C 128.414,108.728 128.747,112.061 128.5,115.5C 126.063,124.271 120.396,129.604 111.5,131.5C 106.823,132.741 102.157,132.741 97.5,131.5C 96.5084,131.672 95.8417,131.338 95.5,130.5C 93.9002,127.06 92.0669,123.726 90,120.5C 89.502,117.518 89.3354,114.518 89.5,111.5C 89.2627,110.209 89.596,109.209 90.5,108.5C 89.828,111.908 90.828,114.575 93.5,116.5C 94.8834,113.924 95.7167,114.258 96,117.5C 96.0936,112.77 98.2602,111.437 102.5,113.5C 103.85,112.05 105.516,111.383 107.5,111.5C 106.241,112.979 105.241,114.646 104.5,116.5C 103.212,118.035 103.212,119.701 104.5,121.5C 107.523,121.185 109.856,119.852 111.5,117.5C 115.412,116.256 117.412,113.589 117.5,109.5C 119.847,106.083 123.18,104.749 127.5,105.5 Z"/></g>
<g><path style="opacity:1" fill="#c3b7ad" d="M 104.5,116.5 C 104.5,117.5 104.5,118.5 104.5,119.5C 107.108,119.6 109.442,118.933 111.5,117.5C 109.856,119.852 107.523,121.185 104.5,121.5C 103.212,119.701 103.212,118.035 104.5,116.5 Z"/></g>
<g><path style="opacity:1" fill="#e8aaba" d="M 111.5,110.5 C 113.355,110.272 114.188,110.939 114,112.5C 105.669,119.334 104.836,118.667 111.5,110.5 Z"/></g>
<g><path style="opacity:1" fill="#e7bdb6" d="M 116.5,108.5 C 117.167,108.5 117.5,108.833 117.5,109.5C 117.412,113.589 115.412,116.256 111.5,117.5C 114.442,115.221 116.109,112.221 116.5,108.5 Z"/></g>
<g><path style="opacity:1" fill="#9ec0b2" d="M 131.5,114.5 C 131.224,120.547 130.557,126.547 129.5,132.5C 128.844,131.378 128.511,130.045 128.5,128.5C 129.219,123.642 130.219,118.975 131.5,114.5 Z"/></g>
<g><path style="opacity:1" fill="#6e65a1" d="M 87.5,111.5 C 88.1667,111.5 88.8333,111.5 89.5,111.5C 89.3354,114.518 89.502,117.518 90,120.5C 92.0669,123.726 93.9002,127.06 95.5,130.5C 94.6043,129.494 93.9377,129.494 93.5,130.5C 91.8818,132.785 89.8818,134.785 87.5,136.5C 87.8076,137.308 88.3076,137.975 89,138.5C 90.6276,158.392 91.6276,158.392 92,138.5C 93.7342,136.549 95.9009,135.549 98.5,135.5C 101.167,135.5 103.833,135.5 106.5,135.5C 108.344,137.195 109.677,139.195 110.5,141.5C 110.5,142.167 110.833,142.5 111.5,142.5C 110.836,144.487 109.669,146.154 108,147.5C 109.546,138.201 106.046,134.868 97.5,137.5C 96.2502,137.577 95.4169,138.244 95,139.5C 94.5006,144.823 94.334,150.156 94.5,155.5C 92.1727,155.753 90.1727,155.086 88.5,153.5C 87.5059,148.544 87.1725,143.544 87.5,138.5C 83.2961,137.09 78.9628,136.423 74.5,136.5C 76.1667,135.833 77.8333,135.167 79.5,134.5C 84.6012,135.891 87.9345,134.057 89.5,129C 88.0095,123.262 87.3429,117.429 87.5,111.5 Z"/></g>
<g><path style="opacity:1" fill="#9adbf3" d="M 69.5,107.5 C 65.9055,114.27 64.5721,121.603 65.5,129.5C 55.0789,127.935 47.7455,131.935 43.5,141.5C 41.7132,140.553 40.0465,139.387 38.5,138C 36.5,137.333 34.5,137.333 32.5,138C 30.9423,140.054 28.9423,141.554 26.5,142.5C 25.6518,144.409 25.3184,146.409 25.5,148.5C 25.5867,156.083 26.9201,163.417 29.5,170.5C 29.5,171.833 28.8333,172.5 27.5,172.5C 27.6107,171.883 27.944,171.383 28.5,171C 23.9156,166.74 20.9156,161.573 19.5,155.5C 20.8941,145.476 25.0608,136.809 32,129.5C 40.0268,122.304 48.1935,115.304 56.5,108.5C 60.066,108.685 63.3993,108.019 66.5,106.5C 67.7261,106.52 68.7261,106.853 69.5,107.5 Z"/></g>
<g><path style="opacity:1" fill="#f189a8" d="M 110.5,141.5 C 109.677,139.195 108.344,137.195 106.5,135.5C 114.802,134.436 121.635,130.436 127,123.5C 127.499,127.152 127.665,130.818 127.5,134.5C 120.538,133.976 114.871,136.309 110.5,141.5 Z"/></g>
<g><path style="opacity:1" fill="#574684" d="M 88.5,84.5 C 91.0593,84.1984 93.3926,84.5318 95.5,85.5C 95.5569,86.609 95.8902,87.609 96.5,88.5C 96.1924,90.924 96.5258,93.2573 97.5,95.5C 98.9948,94.2947 100.328,94.2947 101.5,95.5C 98.0205,96.9975 95.1871,99.3309 93,102.5C 91.878,104.407 91.0447,106.407 90.5,108.5C 89.596,109.209 89.2627,110.209 89.5,111.5C 88.8333,111.5 88.1667,111.5 87.5,111.5C 88.193,107.433 89.8597,103.767 92.5,100.5C 91.9747,99.8076 91.3081,99.3076 90.5,99C 91.4158,98.7216 92.0825,98.2216 92.5,97.5C 93.5,97.5 94.5,97.5 95.5,97.5C 97.2763,87.2552 93.6097,84.2552 84.5,88.5C 81.0835,90.0244 77.4169,91.0244 73.5,91.5C 68.1906,92.0756 63.1906,93.409 58.5,95.5C 57.5,95.5 56.5,95.5 55.5,95.5C 55.467,98.836 56.1336,102.003 57.5,105C 62.5004,104.837 67.5004,104.337 72.5,103.5C 74.7069,113.869 77.0402,124.202 79.5,134.5C 77.8333,135.167 76.1667,135.833 74.5,136.5C 73.8333,136.5 73.5,136.833 73.5,137.5C 67.2132,133.014 60.2132,131.514 52.5,133C 44.5123,138.968 42.679,146.468 47,155.5C 51.5306,158.237 56.3639,160.404 61.5,162C 64.4456,165.491 63.6122,167.658 59,168.5C 56.1808,168.007 53.6808,166.84 51.5,165C 46.6554,164.509 44.3221,166.842 44.5,172C 44.6483,173.256 44.9816,174.423 45.5,175.5C 44.8333,175.5 44.1667,175.5 43.5,175.5C 42.9926,170.684 43.9926,166.35 46.5,162.5C 47.991,162.901 49.6577,163.068 51.5,163C 54.1456,166.093 57.3123,167.259 61,166.5C 61.4828,165.552 61.6495,164.552 61.5,163.5C 56.7842,161.98 52.1175,160.146 47.5,158C 46.2668,156.333 44.9335,154.833 43.5,153.5C 43.5,149.5 43.5,145.5 43.5,141.5C 47.7455,131.935 55.0789,127.935 65.5,129.5C 67.3345,132.056 69.8345,133.723 73,134.5C 74.6209,134.275 75.7875,133.442 76.5,132C 74.6413,123.649 72.308,115.482 69.5,107.5C 68.7261,106.853 67.7261,106.52 66.5,106.5C 63.3993,108.019 60.066,108.685 56.5,108.5C 54.32,105.619 53.32,102.286 53.5,98.5C 53.2267,96.549 53.8934,95.049 55.5,94C 63.0352,92.0951 70.3685,89.9284 77.5,87.5C 81.479,87.2576 85.1456,86.2576 88.5,84.5 Z"/></g>
<g><path style="opacity:1" fill="#a577a6" d="M 92.5,97.5 C 92.0825,98.2216 91.4158,98.7216 90.5,99C 91.3081,99.3076 91.9747,99.8076 92.5,100.5C 89.8597,103.767 88.193,107.433 87.5,111.5C 85.8816,107.425 84.8816,103.092 84.5,98.5C 87.1667,98.1667 89.8333,97.8333 92.5,97.5 Z"/></g>
<g><path style="opacity:1" fill="#d6a2cb" d="M 73.5,91.5 C 68.8065,93.6141 63.8065,94.9474 58.5,95.5C 63.1906,93.409 68.1906,92.0756 73.5,91.5 Z"/></g>
<g><path style="opacity:1" fill="#dc94a6" d="M 92.5,97.5 C 93.3909,96.7387 94.0576,95.7387 94.5,94.5C 94,92.5 93.5,90.5 93,88.5C 90.2819,87.9874 87.4485,87.9874 84.5,88.5C 93.6097,84.2552 97.2763,87.2552 95.5,97.5C 94.5,97.5 93.5,97.5 92.5,97.5 Z"/></g>
<g><path style="opacity:1" fill="#e6c7bf" d="M 97.5,131.5 C 102.157,132.741 106.823,132.741 111.5,131.5C 109.321,132.926 106.821,133.592 104,133.5C 101.456,133.664 99.2897,132.997 97.5,131.5 Z"/></g>
<g><path style="opacity:1" fill="#96af95" d="M 129.5,132.5 C 133.434,133.36 137.434,133.693 141.5,133.5C 140.054,134.94 138.221,135.607 136,135.5C 133.198,135.68 131.031,134.68 129.5,132.5 Z"/></g>
<g><path style="opacity:1" fill="#41acf4" d="M 73.5,137.5 C 73.5,146.5 73.5,155.5 73.5,164.5C 73.5,166.833 73.5,169.167 73.5,171.5C 72.1798,173.463 70.8465,175.463 69.5,177.5C 66.2883,178.804 62.955,179.804 59.5,180.5C 55.4037,179.749 51.4037,178.749 47.5,177.5C 47.1667,176.5 46.5,175.833 45.5,175.5C 44.9816,174.423 44.6483,173.256 44.5,172C 44.3221,166.842 46.6554,164.509 51.5,165C 53.6808,166.84 56.1808,168.007 59,168.5C 63.6122,167.658 64.4456,165.491 61.5,162C 56.3639,160.404 51.5306,158.237 47,155.5C 42.679,146.468 44.5123,138.968 52.5,133C 60.2132,131.514 67.2132,133.014 73.5,137.5 Z"/></g>
<g><path style="opacity:1" fill="#ef698b" d="M 147.5,123.5 C 148.913,126.219 149.58,129.219 149.5,132.5C 147.856,132.286 146.356,132.62 145,133.5C 144.333,136.167 143.667,138.833 143,141.5C 142.184,140.177 141.017,139.511 139.5,139.5C 139.196,138.85 138.863,138.183 138.5,137.5C 140.193,136.772 141.693,135.772 143,134.5C 143.452,130.281 144.952,126.614 147.5,123.5 Z"/></g>
<g><path style="opacity:1" fill="#e77fa4" d="M 93.5,130.5 C 94.973,132.395 96.6397,134.061 98.5,135.5C 95.9009,135.549 93.7342,136.549 92,138.5C 91.6276,158.392 90.6276,158.392 89,138.5C 88.3076,137.975 87.8076,137.308 87.5,136.5C 89.8818,134.785 91.8818,132.785 93.5,130.5 Z"/></g>
<g><path style="opacity:1" fill="#f395b2" d="M 188.5,138.5 C 193.118,138.269 197.118,139.769 200.5,143C 201.38,144.356 201.714,145.856 201.5,147.5C 199.958,146.699 198.292,146.366 196.5,146.5C 196.5,145.5 196.5,144.5 196.5,143.5C 192.113,142.895 188.446,144.229 185.5,147.5C 184.481,146.313 183.314,145.313 182,144.5C 180.555,146.612 180.722,148.778 182.5,151C 180.895,152.685 179.562,154.518 178.5,156.5C 178.492,153.455 178.159,150.455 177.5,147.5C 178.823,145.529 180.156,143.529 181.5,141.5C 184.238,141.113 186.572,140.113 188.5,138.5 Z"/></g>
<g><path style="opacity:1" fill="#f485ab" d="M 43.5,141.5 C 43.5,145.5 43.5,149.5 43.5,153.5C 41.8958,152.713 41.2291,151.38 41.5,149.5C 37.3353,149.556 33.6686,148.223 30.5,145.5C 29.4024,149.361 28.5691,149.361 28,145.5C 27.1482,146.571 26.3149,147.571 25.5,148.5C 25.3184,146.409 25.6518,144.409 26.5,142.5C 28.9423,141.554 30.9423,140.054 32.5,138C 34.5,137.333 36.5,137.333 38.5,138C 40.0465,139.387 41.7132,140.553 43.5,141.5 Z"/></g>
<g><path style="opacity:1" fill="#f57718" d="M 159.5,136.5 C 163.466,138.778 167.466,141.112 171.5,143.5C 172.298,143.957 172.631,144.624 172.5,145.5C 168.985,145.879 165.652,146.879 162.5,148.5C 161.539,151.941 160.372,155.274 159,158.5C 157.847,156.503 156.347,156.17 154.5,157.5C 156.637,158.738 157.971,160.571 158.5,163C 157.552,163.483 156.552,163.649 155.5,163.5C 155.318,161.325 154.651,159.325 153.5,157.5C 153.543,156.584 153.876,155.917 154.5,155.5C 156.099,155.768 157.432,155.434 158.5,154.5C 159.301,152.958 159.634,151.292 159.5,149.5C 158.432,148.566 157.099,148.232 155.5,148.5C 154.007,144.588 153.34,144.921 153.5,149.5C 150.692,149.693 148.025,150.36 145.5,151.5C 145.5,147.833 145.5,144.167 145.5,140.5C 146.167,140.5 146.5,140.167 146.5,139.5C 147.434,138.432 147.768,137.099 147.5,135.5C 151.519,135.646 155.519,135.979 159.5,136.5 Z"/></g>
<g><path style="opacity:1" fill="#523878" d="M 58.5,145.5 C 62.0641,145.688 65.3974,146.688 68.5,148.5C 69.8139,147.687 70.9805,146.687 72,145.5C 72.6667,148.833 72.6667,152.167 72,155.5C 68.9192,152.707 65.4192,150.54 61.5,149C 59.9371,148.241 58.9371,147.074 58.5,145.5 Z"/></g>
<g><path style="opacity:1" fill="#f16e8f" d="M 196.5,146.5 C 195.014,148.559 193.18,149.225 191,148.5C 183.203,154.452 178.036,162.118 175.5,171.5C 173.896,172.287 173.229,173.62 173.5,175.5C 172.371,177.628 172.204,179.961 173,182.5C 174.417,183.078 175.25,184.078 175.5,185.5C 172.074,184.889 168.741,185.556 165.5,187.5C 165.5,187.167 165.5,186.833 165.5,186.5C 168.564,186.019 169.398,184.686 168,182.5C 167.505,180.527 167.338,178.527 167.5,176.5C 166.5,176.5 165.5,176.5 164.5,176.5C 164.705,179.114 164.705,181.448 164.5,183.5C 162.396,181.417 162.062,179.083 163.5,176.5C 162.975,175.808 162.308,175.308 161.5,175C 163.577,174.808 165.577,174.308 167.5,173.5C 164.914,172.52 162.247,172.187 159.5,172.5C 159.5,173.5 159.5,174.5 159.5,175.5C 158.5,175.5 157.5,175.5 156.5,175.5C 156.923,173.219 156.256,171.552 154.5,170.5C 154.735,169.903 155.235,169.57 156,169.5C 168.348,173.576 175.848,169.242 178.5,156.5C 179.562,154.518 180.895,152.685 182.5,151C 180.722,148.778 180.555,146.612 182,144.5C 183.314,145.313 184.481,146.313 185.5,147.5C 188.446,144.229 192.113,142.895 196.5,143.5C 196.5,144.5 196.5,145.5 196.5,146.5 Z"/></g>
<g><path style="opacity:1" fill="#f2a382" d="M 145.5,140.5 C 145.5,144.167 145.5,147.833 145.5,151.5C 145.802,154.059 145.468,156.393 144.5,158.5C 144.806,155.615 144.473,152.948 143.5,150.5C 143.5,149.5 143.5,148.5 143.5,147.5C 144.167,145.167 144.833,142.833 145.5,140.5 Z"/></g>
<g><path style="opacity:1" fill="#585193" d="M 149.5,132.5 C 161.26,133.322 170.594,138.322 177.5,147.5C 178.159,150.455 178.492,153.455 178.5,156.5C 175.848,169.242 168.348,173.576 156,169.5C 155.235,169.57 154.735,169.903 154.5,170.5C 153.679,173.641 153.179,176.975 153,180.5C 152.617,181.056 152.117,181.389 151.5,181.5C 151.5,179.167 151.5,176.833 151.5,174.5C 152.216,172.444 152.883,170.277 153.5,168C 156.703,168.736 160.036,169.236 163.5,169.5C 166.826,169.927 169.492,168.927 171.5,166.5C 172.184,164.551 173.351,162.885 175,161.5C 175.667,157.167 175.667,152.833 175,148.5C 173.955,147.627 173.122,146.627 172.5,145.5C 172.631,144.624 172.298,143.957 171.5,143.5C 167.466,141.112 163.466,138.778 159.5,136.5C 155.455,134.823 151.122,134.156 146.5,134.5C 146.5,136.167 146.5,137.833 146.5,139.5C 146.5,140.167 146.167,140.5 145.5,140.5C 144.833,142.833 144.167,145.167 143.5,147.5C 141.916,144.574 139.916,141.908 137.5,139.5C 138.167,139.5 138.833,139.5 139.5,139.5C 141.017,139.511 142.184,140.177 143,141.5C 143.667,138.833 144.333,136.167 145,133.5C 146.356,132.62 147.856,132.286 149.5,132.5 Z"/></g>
<g><path style="opacity:1" fill="#e5b7af" d="M 159.5,136.5 C 155.519,135.979 151.519,135.646 147.5,135.5C 147.768,137.099 147.434,138.432 146.5,139.5C 146.5,137.833 146.5,136.167 146.5,134.5C 151.122,134.156 155.455,134.823 159.5,136.5 Z"/></g>
<g><path style="opacity:1" fill="#f37554" d="M 43.5,153.5 C 43.9856,156.711 44.9856,159.711 46.5,162.5C 43.9926,166.35 42.9926,170.684 43.5,175.5C 41.4362,175.762 40.1029,176.929 39.5,179C 38.2068,179.49 36.8734,179.657 35.5,179.5C 32.7866,176.941 30.7866,173.941 29.5,170.5C 26.9201,163.417 25.5867,156.083 25.5,148.5C 26.3149,147.571 27.1482,146.571 28,145.5C 28.5691,149.361 29.4024,149.361 30.5,145.5C 33.6686,148.223 37.3353,149.556 41.5,149.5C 41.2291,151.38 41.8958,152.713 43.5,153.5 Z"/></g>
<g><path style="opacity:1" fill="#a33c7e" d="M 137.5,139.5 C 139.916,141.908 141.916,144.574 143.5,147.5C 143.5,148.5 143.5,149.5 143.5,150.5C 140.503,151.062 137.836,152.395 135.5,154.5C 135.167,154 134.833,153.5 134.5,153C 135.833,151.333 137.167,149.667 138.5,148C 138.167,147.5 137.833,147 137.5,146.5C 135.815,147.953 134.149,149.286 132.5,150.5C 130.834,149.334 129.167,149.334 127.5,150.5C 124.452,152.882 121.785,155.548 119.5,158.5C 116.539,159.323 113.539,159.99 110.5,160.5C 110.491,167.814 109.324,168.147 107,161.5C 106.666,163.847 106.833,166.181 107.5,168.5C 106.203,166.629 105.203,164.629 104.5,162.5C 105.759,154.887 106.259,147.22 106,139.5C 103.519,137.686 100.685,137.02 97.5,137.5C 106.046,134.868 109.546,138.201 108,147.5C 109.669,146.154 110.836,144.487 111.5,142.5C 113.401,140.204 115.734,138.371 118.5,137C 125.425,134.489 131.758,135.323 137.5,139.5 Z"/></g>
<g><path style="opacity:1" fill="#5a557e" d="M 132.5,150.5 C 133.412,151.738 133.579,153.072 133,154.5C 131.376,156.158 129.709,157.825 128,159.5C 127.607,157.801 128.107,156.301 129.5,155C 129.167,154.5 128.833,154 128.5,153.5C 125.58,155.222 123.747,157.555 123,160.5C 124.011,159.663 125.178,159.33 126.5,159.5C 125.951,162.389 124.118,164.056 121,164.5C 118.327,163.142 117.827,161.142 119.5,158.5C 121.785,155.548 124.452,152.882 127.5,150.5C 129.167,149.334 130.834,149.334 132.5,150.5 Z"/></g>
<g><path style="opacity:1" fill="#f6550f" d="M 155.5,148.5 C 155.552,150.903 155.219,153.236 154.5,155.5C 153.876,155.917 153.543,156.584 153.5,157.5C 154.651,159.325 155.318,161.325 155.5,163.5C 156.552,163.649 157.552,163.483 158.5,163C 157.971,160.571 156.637,158.738 154.5,157.5C 156.347,156.17 157.847,156.503 159,158.5C 160.372,155.274 161.539,151.941 162.5,148.5C 165.652,146.879 168.985,145.879 172.5,145.5C 173.122,146.627 173.955,147.627 175,148.5C 175.667,152.833 175.667,157.167 175,161.5C 173.351,162.885 172.184,164.551 171.5,166.5C 165.485,169.427 159.652,169.094 154,165.5C 153.055,165.905 152.388,166.572 152,167.5C 151.503,169.81 151.337,172.143 151.5,174.5C 150.087,177.219 149.42,180.219 149.5,183.5C 145.476,184.505 141.476,184.172 137.5,182.5C 136.599,179.205 136.599,175.872 137.5,172.5C 140.125,168.09 142.458,163.423 144.5,158.5C 145.468,156.393 145.802,154.059 145.5,151.5C 148.025,150.36 150.692,149.693 153.5,149.5C 153.34,144.921 154.007,144.588 155.5,148.5 Z"/></g>
<g><path style="opacity:1" fill="#373cb9" d="M 159.5,149.5 C 159.634,151.292 159.301,152.958 158.5,154.5C 156.744,153.448 156.077,151.781 156.5,149.5C 157.5,149.5 158.5,149.5 159.5,149.5 Z"/></g>
<g><path style="opacity:1" fill="#beb3a7" d="M 155.5,148.5 C 157.099,148.232 158.432,148.566 159.5,149.5C 158.5,149.5 157.5,149.5 156.5,149.5C 156.077,151.781 156.744,153.448 158.5,154.5C 157.432,155.434 156.099,155.768 154.5,155.5C 155.219,153.236 155.552,150.903 155.5,148.5 Z"/></g>
<g><path style="opacity:1" fill="#e778a1" d="M 43.5,153.5 C 44.9335,154.833 46.2668,156.333 47.5,158C 52.1175,160.146 56.7842,161.98 61.5,163.5C 61.6495,164.552 61.4828,165.552 61,166.5C 57.3123,167.259 54.1456,166.093 51.5,163C 49.6577,163.068 47.991,162.901 46.5,162.5C 44.9856,159.711 43.9856,156.711 43.5,153.5 Z"/></g>
<g><path style="opacity:1" fill="#f47954" d="M 196.5,146.5 C 198.292,146.366 199.958,146.699 201.5,147.5C 201.212,156.059 198.212,163.393 192.5,169.5C 191.141,171.503 189.808,173.503 188.5,175.5C 187.833,175.5 187.167,175.5 186.5,175.5C 186.167,175.5 185.833,175.5 185.5,175.5C 185.64,173.876 184.973,172.71 183.5,172C 180.854,171.503 178.187,171.336 175.5,171.5C 178.036,162.118 183.203,154.452 191,148.5C 193.18,149.225 195.014,148.559 196.5,146.5 Z"/></g>
<g><path style="opacity:1" fill="#e8127e" d="M 74.5,136.5 C 78.9628,136.423 83.2961,137.09 87.5,138.5C 87.1725,143.544 87.5059,148.544 88.5,153.5C 90.1727,155.086 92.1727,155.753 94.5,155.5C 94.334,150.156 94.5006,144.823 95,139.5C 95.4169,138.244 96.2502,137.577 97.5,137.5C 100.685,137.02 103.519,137.686 106,139.5C 106.259,147.22 105.759,154.887 104.5,162.5C 103.828,163.267 102.995,163.934 102,164.5C 100.383,163.149 99.2162,161.482 98.5,159.5C 97.5389,162.295 95.7055,164.295 93,165.5C 92.5304,166.577 92.6971,167.577 93.5,168.5C 91.8333,168.5 90.1667,168.5 88.5,168.5C 87.806,173.112 87.806,177.778 88.5,182.5C 84.0345,183.736 79.7012,183.736 75.5,182.5C 75.2434,176.312 74.5767,170.312 73.5,164.5C 73.5,155.5 73.5,146.5 73.5,137.5C 73.5,136.833 73.8333,136.5 74.5,136.5 Z"/></g>
<g><path style="opacity:1" fill="#84255e" d="M 143.5,150.5 C 144.473,152.948 144.806,155.615 144.5,158.5C 142.458,163.423 140.125,168.09 137.5,172.5C 137.657,171.127 137.49,169.793 137,168.5C 133.518,171.487 129.685,173.821 125.5,175.5C 118.984,176.763 113.484,175.096 109,170.5C 108.536,171.094 108.369,171.761 108.5,172.5C 107.566,171.432 107.232,170.099 107.5,168.5C 106.833,166.181 106.666,163.847 107,161.5C 109.324,168.147 110.491,167.814 110.5,160.5C 113.539,159.99 116.539,159.323 119.5,158.5C 117.827,161.142 118.327,163.142 121,164.5C 124.118,164.056 125.951,162.389 126.5,159.5C 125.178,159.33 124.011,159.663 123,160.5C 123.747,157.555 125.58,155.222 128.5,153.5C 128.833,154 129.167,154.5 129.5,155C 128.107,156.301 127.607,157.801 128,159.5C 129.709,157.825 131.376,156.158 133,154.5C 133.579,153.072 133.412,151.738 132.5,150.5C 134.149,149.286 135.815,147.953 137.5,146.5C 137.833,147 138.167,147.5 138.5,148C 137.167,149.667 135.833,151.333 134.5,153C 134.833,153.5 135.167,154 135.5,154.5C 137.836,152.395 140.503,151.062 143.5,150.5 Z"/></g>
<g><path style="opacity:1" fill="#e50866" d="M 104.5,162.5 C 105.203,164.629 106.203,166.629 107.5,168.5C 107.232,170.099 107.566,171.432 108.5,172.5C 108.813,175.247 108.48,177.914 107.5,180.5C 103.712,182.256 99.7121,182.922 95.5,182.5C 95.6655,178.486 95.4988,174.486 95,170.5C 94.6174,169.944 94.1174,169.611 93.5,169.5C 93.5,169.167 93.5,168.833 93.5,168.5C 92.6971,167.577 92.5304,166.577 93,165.5C 95.7055,164.295 97.5389,162.295 98.5,159.5C 99.2162,161.482 100.383,163.149 102,164.5C 102.995,163.934 103.828,163.267 104.5,162.5 Z"/></g>
<g><path style="opacity:1" fill="#d8b7bd" d="M 171.5,166.5 C 169.492,168.927 166.826,169.927 163.5,169.5C 160.036,169.236 156.703,168.736 153.5,168C 152.883,170.277 152.216,172.444 151.5,174.5C 151.337,172.143 151.503,169.81 152,167.5C 152.388,166.572 153.055,165.905 154,165.5C 159.652,169.094 165.485,169.427 171.5,166.5 Z"/></g>
<g><path style="opacity:1" fill="#bfb6a0" d="M 175.5,171.5 C 178.187,171.336 180.854,171.503 183.5,172C 184.973,172.71 185.64,173.876 185.5,175.5C 183.475,178.113 181.308,178.113 179,175.5C 177.013,178.099 175.179,178.099 173.5,175.5C 173.229,173.62 173.896,172.287 175.5,171.5 Z"/></g>
<g><path style="opacity:1" fill="#e0a3cf" d="M 73.5,164.5 C 74.5767,170.312 75.2434,176.312 75.5,182.5C 74.3126,179.054 73.6459,175.387 73.5,171.5C 73.5,169.167 73.5,166.833 73.5,164.5 Z"/></g>
<g><path style="opacity:1" fill="#cb98c8" d="M 93.5,168.5 C 93.5,168.833 93.5,169.167 93.5,169.5C 92.1779,169.33 91.0113,169.663 90,170.5C 89.8238,174.688 89.3238,178.688 88.5,182.5C 87.806,177.778 87.806,173.112 88.5,168.5C 90.1667,168.5 91.8333,168.5 93.5,168.5 Z"/></g>
<g><path style="opacity:1" fill="#94be72" d="M 192.5,169.5 C 195.597,169.571 198.93,169.738 202.5,170C 206.041,170.665 208.708,172.498 210.5,175.5C 207.171,175.998 204.005,176.998 201,178.5C 196.73,178.474 192.563,177.474 188.5,175.5C 189.808,173.503 191.141,171.503 192.5,169.5 Z"/></g>
<g><path style="opacity:1" fill="#897da7" d="M 125.5,175.5 C 121.298,176.799 116.964,176.799 112.5,175.5C 111.702,175.957 111.369,176.624 111.5,177.5C 112.024,181.31 110.357,183.31 106.5,183.5C 102.629,183.815 98.9619,183.482 95.5,182.5C 99.7121,182.922 103.712,182.256 107.5,180.5C 108.48,177.914 108.813,175.247 108.5,172.5C 108.369,171.761 108.536,171.094 109,170.5C 113.484,175.096 118.984,176.763 125.5,175.5 Z"/></g>
<g><path style="opacity:1" fill="#5a4888" d="M 137.5,172.5 C 135.856,172.81 134.856,173.81 134.5,175.5C 129.328,177.126 123.994,178.46 118.5,179.5C 117.261,179.058 116.261,178.391 115.5,177.5C 115.167,177.5 114.833,177.5 114.5,177.5C 113.5,177.5 112.5,177.5 111.5,177.5C 111.369,176.624 111.702,175.957 112.5,175.5C 116.964,176.799 121.298,176.799 125.5,175.5C 129.685,173.821 133.518,171.487 137,168.5C 137.49,169.793 137.657,171.127 137.5,172.5 Z"/></g>
<g><path style="opacity:1" fill="#9aa3c1" d="M 93.5,169.5 C 94.1174,169.611 94.6174,169.944 95,170.5C 95.4988,174.486 95.6655,178.486 95.5,182.5C 93.9462,178.433 93.2796,174.1 93.5,169.5 Z"/></g>
<g><path style="opacity:1" fill="#f4516d" d="M 154.5,170.5 C 156.256,171.552 156.923,173.219 156.5,175.5C 157.5,175.5 158.5,175.5 159.5,175.5C 159.5,174.5 159.5,173.5 159.5,172.5C 162.247,172.187 164.914,172.52 167.5,173.5C 165.577,174.308 163.577,174.808 161.5,175C 162.308,175.308 162.975,175.808 163.5,176.5C 162.062,179.083 162.396,181.417 164.5,183.5C 164.705,181.448 164.705,179.114 164.5,176.5C 165.5,176.5 166.5,176.5 167.5,176.5C 167.338,178.527 167.505,180.527 168,182.5C 169.398,184.686 168.564,186.019 165.5,186.5C 164.167,186.5 162.833,186.5 161.5,186.5C 160.235,183.537 158.902,180.537 157.5,177.5C 156.833,178.5 156.167,179.5 155.5,180.5C 154.513,177.232 154.18,173.898 154.5,170.5 Z"/></g>
<g><path style="opacity:1" fill="#c8567a" d="M 29.5,170.5 C 30.7866,173.941 32.7866,176.941 35.5,179.5C 35.5,179.833 35.5,180.167 35.5,180.5C 33.1432,180.663 30.8098,180.497 28.5,180C 27.7476,179.329 27.4142,178.496 27.5,177.5C 27.5,175.833 27.5,174.167 27.5,172.5C 28.8333,172.5 29.5,171.833 29.5,170.5 Z"/></g>
<g><path style="opacity:1" fill="#c64787" d="M 134.5,175.5 C 135.097,175.735 135.43,176.235 135.5,177C 134.391,179.047 133.724,181.213 133.5,183.5C 134.873,183.343 136.207,183.51 137.5,184C 136.944,184.383 136.611,184.883 136.5,185.5C 135.596,186.209 135.263,187.209 135.5,188.5C 135.5,189.833 135.5,191.167 135.5,192.5C 133.5,192.167 131.5,191.833 129.5,191.5C 129.5,193.5 129.5,195.5 129.5,197.5C 126.904,196.735 124.237,196.401 121.5,196.5C 121.5,197.5 121.5,198.5 121.5,199.5C 119.489,193.484 117.489,187.484 115.5,181.5C 115.5,180.167 115.5,178.833 115.5,177.5C 116.261,178.391 117.261,179.058 118.5,179.5C 123.994,178.46 129.328,177.126 134.5,175.5 Z"/></g>
<g><path style="opacity:1" fill="#a3c66b" d="M 173.5,175.5 C 175.179,178.099 177.013,178.099 179,175.5C 181.308,178.113 183.475,178.113 185.5,175.5C 185.833,175.5 186.167,175.5 186.5,175.5C 185.508,179.482 184.508,183.482 183.5,187.5C 184.855,189.521 186.521,191.188 188.5,192.5C 188.5,192.833 188.5,193.167 188.5,193.5C 186.167,192.833 183.833,192.167 181.5,191.5C 181.653,187.202 179.653,185.202 175.5,185.5C 175.25,184.078 174.417,183.078 173,182.5C 172.204,179.961 172.371,177.628 173.5,175.5 Z"/></g>
<g><path style="opacity:1" fill="#983339" d="M 12.5,176.5 C 13.791,176.263 14.791,176.596 15.5,177.5C 15.5,178.833 15.5,180.167 15.5,181.5C 13.5853,181.784 11.9187,181.451 10.5,180.5C 10.5858,179.504 10.2524,178.671 9.5,178C 10.7375,177.768 11.7375,177.268 12.5,176.5 Z"/></g>
<g><path style="opacity:1" fill="#492b79" d="M 47.5,177.5 C 51.4037,178.749 55.4037,179.749 59.5,180.5C 62.955,179.804 66.2883,178.804 69.5,177.5C 68.2511,179.136 66.5844,180.303 64.5,181C 61.1832,181.498 57.8499,181.665 54.5,181.5C 51.7541,180.603 49.4208,179.269 47.5,177.5 Z"/></g>
<g><path style="opacity:1" fill="#e8b2ad" d="M 151.5,174.5 C 151.5,176.833 151.5,179.167 151.5,181.5C 150.833,182.167 150.167,182.833 149.5,183.5C 149.42,180.219 150.087,177.219 151.5,174.5 Z"/></g>
<g><path style="opacity:1" fill="#c4498a" d="M 154.5,170.5 C 154.18,173.898 154.513,177.232 155.5,180.5C 156.167,179.5 156.833,178.5 157.5,177.5C 158.902,180.537 160.235,183.537 161.5,186.5C 162.833,186.5 164.167,186.5 165.5,186.5C 165.5,186.833 165.5,187.167 165.5,187.5C 161.154,187.666 156.821,187.499 152.5,187C 151.594,185.301 151.261,183.467 151.5,181.5C 152.117,181.389 152.617,181.056 153,180.5C 153.179,176.975 153.679,173.641 154.5,170.5 Z"/></g>
<g><path style="opacity:1" fill="#b09dac" d="M 137.5,172.5 C 136.599,175.872 136.599,179.205 137.5,182.5C 141.476,184.172 145.476,184.505 149.5,183.5C 148.666,184.748 147.333,185.415 145.5,185.5C 143.257,184.938 141.257,184.938 139.5,185.5C 138.5,185.5 137.5,185.5 136.5,185.5C 136.611,184.883 136.944,184.383 137.5,184C 136.207,183.51 134.873,183.343 133.5,183.5C 133.724,181.213 134.391,179.047 135.5,177C 135.43,176.235 135.097,175.735 134.5,175.5C 134.856,173.81 135.856,172.81 137.5,172.5 Z"/></g>
<g><path style="opacity:1" fill="#64467f" d="M 93.5,169.5 C 93.2796,174.1 93.9462,178.433 95.5,182.5C 98.9619,183.482 102.629,183.815 106.5,183.5C 104.121,185.013 101.455,186.013 98.5,186.5C 96.1792,185.267 93.8459,183.934 91.5,182.5C 90.5713,183.689 90.238,185.022 90.5,186.5C 85.8215,186.666 81.1548,186.499 76.5,186C 72.9489,184.323 71.6155,181.49 72.5,177.5C 71.5,177.5 70.5,177.5 69.5,177.5C 70.8465,175.463 72.1798,173.463 73.5,171.5C 73.6459,175.387 74.3126,179.054 75.5,182.5C 79.7012,183.736 84.0345,183.736 88.5,182.5C 89.3238,178.688 89.8238,174.688 90,170.5C 91.0113,169.663 92.1779,169.33 93.5,169.5 Z"/></g>
<g><path style="opacity:1" fill="#e9a13c" d="M 27.5,172.5 C 27.5,174.167 27.5,175.833 27.5,177.5C 25.1928,180.638 22.3594,183.305 19,185.5C 18.3872,187.495 18.8872,189.162 20.5,190.5C 21.9187,191.451 23.5853,191.784 25.5,191.5C 25.5,190.5 25.5,189.5 25.5,188.5C 28.9097,188.218 32.243,187.551 35.5,186.5C 36.4287,185.311 36.762,183.978 36.5,182.5C 38.8333,182.5 41.1667,182.5 43.5,182.5C 43.5,180.167 43.5,177.833 43.5,175.5C 44.1667,175.5 44.8333,175.5 45.5,175.5C 46.3829,179.954 45.0496,183.454 41.5,186C 42.4061,187.699 42.7394,189.533 42.5,191.5C 41.5,191.5 40.5,191.5 39.5,191.5C 39.6495,190.448 39.4828,189.448 39,188.5C 33.6507,192.764 27.484,194.764 20.5,194.5C 19.1851,193.524 17.8518,192.524 16.5,191.5C 15.9729,188.112 15.6396,184.779 15.5,181.5C 15.5,180.167 15.5,178.833 15.5,177.5C 16.5,177.5 17.5,177.5 18.5,177.5C 18.5,175.833 18.5,174.167 18.5,172.5C 21.5558,171.412 24.5558,171.412 27.5,172.5 Z"/></g>
<g><path style="opacity:1" fill="#ebca4e" d="M 43.5,175.5 C 43.5,177.833 43.5,180.167 43.5,182.5C 41.1667,182.5 38.8333,182.5 36.5,182.5C 36.762,183.978 36.4287,185.311 35.5,186.5C 32.243,187.551 28.9097,188.218 25.5,188.5C 25.5,189.5 25.5,190.5 25.5,191.5C 23.5853,191.784 21.9187,191.451 20.5,190.5C 21.5,190.5 22.5,190.5 23.5,190.5C 23.2148,188.712 23.5481,187.045 24.5,185.5C 25.1667,185.833 25.8333,186.167 26.5,186.5C 29.2148,184.736 32.2148,183.736 35.5,183.5C 35.5,182.5 35.5,181.5 35.5,180.5C 35.5,180.167 35.5,179.833 35.5,179.5C 36.8734,179.657 38.2068,179.49 39.5,179C 40.1029,176.929 41.4362,175.762 43.5,175.5 Z"/></g>
<g><path style="opacity:1" fill="#f4d98b" d="M 27.5,177.5 C 27.4142,178.496 27.7476,179.329 28.5,180C 30.8098,180.497 33.1432,180.663 35.5,180.5C 35.5,181.5 35.5,182.5 35.5,183.5C 32.2148,183.736 29.2148,184.736 26.5,186.5C 25.8333,186.167 25.1667,185.833 24.5,185.5C 23.5481,187.045 23.2148,188.712 23.5,190.5C 22.5,190.5 21.5,190.5 20.5,190.5C 18.8872,189.162 18.3872,187.495 19,185.5C 22.3594,183.305 25.1928,180.638 27.5,177.5 Z"/></g>
<g><path style="opacity:1" fill="#26681b" d="M 186.5,175.5 C 187.167,175.5 187.833,175.5 188.5,175.5C 188.018,176.416 187.685,177.416 187.5,178.5C 188.277,180.447 189.277,182.28 190.5,184C 190.355,184.772 190.022,185.439 189.5,186C 192.606,185.689 195.606,184.856 198.5,183.5C 201.333,184.156 203.833,185.49 206,187.5C 206.5,187.333 207,187.167 207.5,187C 206.483,185.951 206.316,184.784 207,183.5C 209.942,181.672 211.109,179.005 210.5,175.5C 210.833,175.5 211.167,175.5 211.5,175.5C 212.742,180.183 214.075,184.849 215.5,189.5C 215.145,190.522 214.478,191.189 213.5,191.5C 212.508,189.974 211.008,189.307 209,189.5C 206.992,189.307 205.492,189.974 204.5,191.5C 203.18,192.942 201.514,193.608 199.5,193.5C 199.27,190.535 197.603,189.202 194.5,189.5C 192.258,190.091 190.258,191.091 188.5,192.5C 186.521,191.188 184.855,189.521 183.5,187.5C 184.508,183.482 185.508,179.482 186.5,175.5 Z"/></g>
<g><path style="opacity:1" fill="#5ca429" d="M 188.5,175.5 C 192.563,177.474 196.73,178.474 201,178.5C 204.005,176.998 207.171,175.998 210.5,175.5C 211.109,179.005 209.942,181.672 207,183.5C 206.316,184.784 206.483,185.951 207.5,187C 207,187.167 206.5,187.333 206,187.5C 203.833,185.49 201.333,184.156 198.5,183.5C 195.606,184.856 192.606,185.689 189.5,186C 190.022,185.439 190.355,184.772 190.5,184C 189.277,182.28 188.277,180.447 187.5,178.5C 187.685,177.416 188.018,176.416 188.5,175.5 Z"/></g>
<g><path style="opacity:1" fill="#cc4785" d="M 69.5,177.5 C 70.5,177.5 71.5,177.5 72.5,177.5C 71.6155,181.49 72.9489,184.323 76.5,186C 81.1548,186.499 85.8215,186.666 90.5,186.5C 90.238,185.022 90.5713,183.689 91.5,182.5C 93.8459,183.934 96.1792,185.267 98.5,186.5C 101.455,186.013 104.121,185.013 106.5,183.5C 110.357,183.31 112.024,181.31 111.5,177.5C 112.5,177.5 113.5,177.5 114.5,177.5C 112.542,185.036 110.209,192.37 107.5,199.5C 107.5,198.5 107.5,197.5 107.5,196.5C 90.2864,196.63 73.6198,193.964 57.5,188.5C 57.7373,189.791 57.404,190.791 56.5,191.5C 55.3573,188.316 54.6906,184.983 54.5,181.5C 57.8499,181.665 61.1832,181.498 64.5,181C 66.5844,180.303 68.2511,179.136 69.5,177.5 Z"/></g>
<g><path style="opacity:1" fill="#e37c27" d="M 45.5,175.5 C 46.5,175.833 47.1667,176.5 47.5,177.5C 49.4208,179.269 51.7541,180.603 54.5,181.5C 54.6906,184.983 55.3573,188.316 56.5,191.5C 55.6618,191.842 55.3284,192.508 55.5,193.5C 54.5,193.833 53.8333,194.5 53.5,195.5C 49.2484,196.751 45.5817,195.751 42.5,192.5C 39.1162,194.722 35.4495,196.388 31.5,197.5C 27.6775,196.664 24.0108,195.664 20.5,194.5C 27.484,194.764 33.6507,192.764 39,188.5C 39.4828,189.448 39.6495,190.448 39.5,191.5C 40.5,191.5 41.5,191.5 42.5,191.5C 42.7394,189.533 42.4061,187.699 41.5,186C 45.0496,183.454 46.3829,179.954 45.5,175.5 Z"/></g>
<g><path style="opacity:1" fill="#ab060c" d="M 114.5,177.5 C 114.833,177.5 115.167,177.5 115.5,177.5C 115.5,178.833 115.5,180.167 115.5,181.5C 117.016,189.378 117.682,197.378 117.5,205.5C 114.813,205.664 112.146,205.497 109.5,205C 108.244,204.583 107.577,203.75 107.5,202.5C 107.5,201.5 107.5,200.5 107.5,199.5C 110.209,192.37 112.542,185.036 114.5,177.5 Z"/></g>
<g><path style="opacity:1" fill="#d584bb" d="M 211.5,175.5 C 225.303,180.982 226.97,188.815 216.5,199C 205.337,204.502 193.671,208.502 181.5,211C 131.303,218.913 81.3032,218.079 31.5,208.5C 31.5,207.5 31.5,206.5 31.5,205.5C 28.1016,205.82 24.7683,205.487 21.5,204.5C 16.5148,201.424 11.3482,198.758 6,196.5C 4.57633,193.656 3.743,190.656 3.5,187.5C 4.21778,183.626 6.55112,181.292 10.5,180.5C 11.9187,181.451 13.5853,181.784 15.5,181.5C 15.6396,184.779 15.9729,188.112 16.5,191.5C 17.8518,192.524 19.1851,193.524 20.5,194.5C 24.0108,195.664 27.6775,196.664 31.5,197.5C 31.7911,198.649 32.6244,199.316 34,199.5C 39.1134,200.827 44.28,201.827 49.5,202.5C 50.1411,201.007 51.1411,200.007 52.5,199.5C 51.454,202.19 50.454,204.857 49.5,207.5C 52.8499,207.665 56.1832,207.498 59.5,207C 60.3567,206.311 61.0233,205.478 61.5,204.5C 59.2841,200.758 57.2841,197.091 55.5,193.5C 55.3284,192.508 55.6618,191.842 56.5,191.5C 57.404,190.791 57.7373,189.791 57.5,188.5C 73.6198,193.964 90.2864,196.63 107.5,196.5C 107.5,197.5 107.5,198.5 107.5,199.5C 107.5,200.5 107.5,201.5 107.5,202.5C 99.2004,201.629 90.8671,201.295 82.5,201.5C 82.7135,203.144 82.3802,204.644 81.5,206C 76.5,206.333 71.5,206.667 66.5,207C 73.1583,207.5 79.825,207.666 86.5,207.5C 86.5,208.833 86.5,210.167 86.5,211.5C 100.574,210.977 114.408,209.643 128,207.5C 128.535,209.271 129.369,209.604 130.5,208.5C 129.833,207.167 128.833,206.167 127.5,205.5C 126.571,204.311 126.238,202.978 126.5,201.5C 124.833,201.5 123.167,201.5 121.5,201.5C 121.5,200.833 121.5,200.167 121.5,199.5C 121.5,198.5 121.5,197.5 121.5,196.5C 124.237,196.401 126.904,196.735 129.5,197.5C 129.5,197.833 129.5,198.167 129.5,198.5C 128.307,198.97 127.64,199.97 127.5,201.5C 128.602,204.935 130.935,206.935 134.5,207.5C 134.215,209.288 134.548,210.955 135.5,212.5C 137.773,211.625 138.773,209.958 138.5,207.5C 139.5,207.5 140.5,207.5 141.5,207.5C 142.434,208.568 142.768,209.901 142.5,211.5C 146.074,212.092 148.074,210.592 148.5,207C 150.134,206.506 151.801,206.34 153.5,206.5C 153.759,210.068 155.759,211.401 159.5,210.5C 159.5,209.5 159.5,208.5 159.5,207.5C 161.857,207.663 164.19,207.497 166.5,207C 165.316,205.855 165.316,204.688 166.5,203.5C 167.5,203.5 168.5,203.5 169.5,203.5C 169.67,204.822 169.337,205.989 168.5,207C 169.793,207.49 171.127,207.657 172.5,207.5C 174.176,206.817 174.843,205.483 174.5,203.5C 181.655,201.4 188.988,200.067 196.5,199.5C 198.975,198.313 199.975,196.313 199.5,193.5C 201.514,193.608 203.18,192.942 204.5,191.5C 203.61,193.782 203.444,196.115 204,198.5C 211.005,201.326 214.171,198.993 213.5,191.5C 214.478,191.189 215.145,190.522 215.5,189.5C 214.075,184.849 212.742,180.183 211.5,175.5 Z"/></g>
<g><path style="opacity:1" fill="#c2447b" d="M 107.5,202.5 C 107.577,203.75 108.244,204.583 109.5,205C 112.146,205.497 114.813,205.664 117.5,205.5C 118.922,205.291 120.255,204.791 121.5,204C 122.598,203.23 122.598,202.397 121.5,201.5C 123.167,201.5 124.833,201.5 126.5,201.5C 126.238,202.978 126.571,204.311 127.5,205.5C 128.833,206.167 129.833,207.167 130.5,208.5C 129.369,209.604 128.535,209.271 128,207.5C 114.408,209.643 100.574,210.977 86.5,211.5C 86.5,210.167 86.5,208.833 86.5,207.5C 79.825,207.666 73.1583,207.5 66.5,207C 71.5,206.667 76.5,206.333 81.5,206C 82.3802,204.644 82.7135,203.144 82.5,201.5C 90.8671,201.295 99.2004,201.629 107.5,202.5 Z"/></g>
<g><path style="opacity:1" fill="#c35c30" d="M 159.5,203.5 C 159.281,204.675 159.614,205.675 160.5,206.5C 161.562,205.575 161.562,204.575 160.5,203.5C 162.5,203.5 164.5,203.5 166.5,203.5C 165.316,204.688 165.316,205.855 166.5,207C 164.19,207.497 161.857,207.663 159.5,207.5C 159.5,208.5 159.5,209.5 159.5,210.5C 155.759,211.401 153.759,210.068 153.5,206.5C 154.687,204.025 156.687,203.025 159.5,203.5 Z"/></g>
<g><path style="opacity:1" fill="#e4d761" d="M 155.5,205.5 C 159.079,205.766 159.413,207.099 156.5,209.5C 155.571,208.311 155.238,206.978 155.5,205.5 Z"/></g>
<g><path style="opacity:1" fill="#53911d" d="M 55.5,193.5 C 57.2841,197.091 59.2841,200.758 61.5,204.5C 61.0233,205.478 60.3567,206.311 59.5,207C 56.1832,207.498 52.8499,207.665 49.5,207.5C 50.454,204.857 51.454,202.19 52.5,199.5C 53.2341,198.292 53.5674,196.959 53.5,195.5C 53.8333,194.5 54.5,193.833 55.5,193.5 Z"/></g>
<g><path style="opacity:1" fill="#f0d159" d="M 141.5,191.5 C 144.004,192.639 146.67,193.306 149.5,193.5C 149.443,194.609 149.11,195.609 148.5,196.5C 148.821,199.161 148.154,201.828 146.5,204.5C 143.966,204.259 142.3,205.259 141.5,207.5C 140.5,207.5 139.5,207.5 138.5,207.5C 137.167,207.5 135.833,207.5 134.5,207.5C 130.935,206.935 128.602,204.935 127.5,201.5C 127.64,199.97 128.307,198.97 129.5,198.5C 129.414,199.496 129.748,200.329 130.5,201C 134.905,201.696 139.239,201.363 143.5,200C 146.543,196.261 145.876,193.428 141.5,191.5 Z"/></g>
<g><path style="opacity:1" fill="#6a040d" d="M 115.5,181.5 C 117.489,187.484 119.489,193.484 121.5,199.5C 121.5,200.167 121.5,200.833 121.5,201.5C 122.598,202.397 122.598,203.23 121.5,204C 120.255,204.791 118.922,205.291 117.5,205.5C 117.682,197.378 117.016,189.378 115.5,181.5 Z"/></g>
<g><path style="opacity:1" fill="#e7a230" d="M 159.5,192.5 C 161.948,193.473 164.615,193.806 167.5,193.5C 167.719,194.675 167.386,195.675 166.5,196.5C 165.264,195.754 163.93,195.421 162.5,195.5C 162.33,196.822 162.663,197.989 163.5,199C 165.473,199.495 167.473,199.662 169.5,199.5C 169.5,197.167 169.5,194.833 169.5,192.5C 170.167,192.5 170.833,192.5 171.5,192.5C 171.675,195.516 171.675,198.683 171.5,202C 171.759,203.261 172.426,204.261 173.5,205C 172.748,205.671 172.414,206.504 172.5,207.5C 171.127,207.657 169.793,207.49 168.5,207C 169.337,205.989 169.67,204.822 169.5,203.5C 168.5,203.5 167.5,203.5 166.5,203.5C 164.5,203.5 162.5,203.5 160.5,203.5C 160.167,203.5 159.833,203.5 159.5,203.5C 156.687,203.025 154.687,204.025 153.5,206.5C 151.801,206.34 150.134,206.506 148.5,207C 148.074,210.592 146.074,212.092 142.5,211.5C 142.768,209.901 142.434,208.568 141.5,207.5C 142.3,205.259 143.966,204.259 146.5,204.5C 148.154,201.828 148.821,199.161 148.5,196.5C 149.341,198.379 149.675,200.379 149.5,202.5C 152.127,201.908 154.794,201.575 157.5,201.5C 157.5,199.833 157.5,198.167 157.5,196.5C 157.703,194.61 157.037,193.11 155.5,192C 157.066,191.235 158.399,191.402 159.5,192.5 Z"/></g>
<g><path style="opacity:1" fill="#7a5fd1" d="M 159.5,203.5 C 159.833,203.5 160.167,203.5 160.5,203.5C 161.562,204.575 161.562,205.575 160.5,206.5C 159.614,205.675 159.281,204.675 159.5,203.5 Z"/></g>
<g><path style="opacity:1" fill="#2160a9" d="M 65.5,195.5 C 70.8333,195.5 76.1667,195.5 81.5,195.5C 81.9368,198.807 81.2702,201.807 79.5,204.5C 74.544,205.494 69.544,205.827 64.5,205.5C 64.3424,202.098 64.6758,198.764 65.5,195.5 Z"/></g>
<g><path style="opacity:1" fill="#cc5898" d="M 175.5,185.5 C 179.653,185.202 181.653,187.202 181.5,191.5C 179.412,192.939 177.079,193.606 174.5,193.5C 174.34,195.199 174.506,196.866 175,198.5C 178.49,197.566 181.99,196.566 185.5,195.5C 187.79,196.467 189.79,197.8 191.5,199.5C 193.167,199.5 194.833,199.5 196.5,199.5C 188.988,200.067 181.655,201.4 174.5,203.5C 174.843,205.483 174.176,206.817 172.5,207.5C 172.414,206.504 172.748,205.671 173.5,205C 172.426,204.261 171.759,203.261 171.5,202C 171.675,198.683 171.675,195.516 171.5,192.5C 171.5,191.5 171.5,190.5 171.5,189.5C 168.99,189.946 166.99,189.28 165.5,187.5C 168.741,185.556 172.074,184.889 175.5,185.5 Z"/></g>
<g><path style="opacity:1" fill="#bf372f" d="M 135.5,188.5 C 136.434,189.568 136.768,190.901 136.5,192.5C 137.959,192.567 139.292,192.234 140.5,191.5C 140.833,191.5 141.167,191.5 141.5,191.5C 145.876,193.428 146.543,196.261 143.5,200C 139.239,201.363 134.905,201.696 130.5,201C 129.748,200.329 129.414,199.496 129.5,198.5C 129.5,198.167 129.5,197.833 129.5,197.5C 129.5,195.5 129.5,193.5 129.5,191.5C 131.5,191.833 133.5,192.167 135.5,192.5C 135.5,191.167 135.5,189.833 135.5,188.5 Z"/></g>
<g><path style="opacity:1" fill="#c74589" d="M 53.5,195.5 C 53.5674,196.959 53.2341,198.292 52.5,199.5C 51.1411,200.007 50.1411,201.007 49.5,202.5C 44.28,201.827 39.1134,200.827 34,199.5C 32.6244,199.316 31.7911,198.649 31.5,197.5C 35.4495,196.388 39.1162,194.722 42.5,192.5C 45.5817,195.751 49.2484,196.751 53.5,195.5 Z"/></g>
<g><path style="opacity:1" fill="#92b7cd" d="M 169.5,192.5 C 169.5,194.833 169.5,197.167 169.5,199.5C 167.473,199.662 165.473,199.495 163.5,199C 162.663,197.989 162.33,196.822 162.5,195.5C 163.93,195.421 165.264,195.754 166.5,196.5C 167.386,195.675 167.719,194.675 167.5,193.5C 164.615,193.806 161.948,193.473 159.5,192.5C 163.011,192.163 166.344,192.163 169.5,192.5 Z"/></g>
<g><path style="opacity:1" fill="#c34027" d="M 199.5,193.5 C 199.975,196.313 198.975,198.313 196.5,199.5C 194.833,199.5 193.167,199.5 191.5,199.5C 190.971,197.216 189.971,195.216 188.5,193.5C 188.5,193.167 188.5,192.833 188.5,192.5C 190.258,191.091 192.258,190.091 194.5,189.5C 197.603,189.202 199.27,190.535 199.5,193.5 Z"/></g>
<g><path style="opacity:1" fill="#bc2d61" d="M 181.5,191.5 C 183.833,192.167 186.167,192.833 188.5,193.5C 189.971,195.216 190.971,197.216 191.5,199.5C 189.79,197.8 187.79,196.467 185.5,195.5C 181.99,196.566 178.49,197.566 175,198.5C 174.506,196.866 174.34,195.199 174.5,193.5C 177.079,193.606 179.412,192.939 181.5,191.5 Z"/></g>
<g><path style="opacity:1" fill="#cb3e31" d="M 213.5,191.5 C 214.171,198.993 211.005,201.326 204,198.5C 203.444,196.115 203.61,193.782 204.5,191.5C 205.492,189.974 206.992,189.307 209,189.5C 211.008,189.307 212.508,189.974 213.5,191.5 Z"/></g>
<g><path style="opacity:1" fill="#e4cf56" d="M 207.5,191.5 C 209.561,192.751 209.894,194.418 208.5,196.5C 206.246,195.286 205.913,193.619 207.5,191.5 Z"/></g>
<g><path style="opacity:1" fill="#abb5b5" d="M 149.5,193.5 C 151.167,193.5 152.833,193.5 154.5,193.5C 154.5,194.5 154.5,195.5 154.5,196.5C 155.5,196.5 156.5,196.5 157.5,196.5C 157.5,198.167 157.5,199.833 157.5,201.5C 154.794,201.575 152.127,201.908 149.5,202.5C 149.675,200.379 149.341,198.379 148.5,196.5C 149.11,195.609 149.443,194.609 149.5,193.5 Z"/></g>
<g><path style="opacity:1" fill="#dde57e" d="M 193.5,192.5 C 195.048,192.821 195.715,193.821 195.5,195.5C 192.752,195.598 192.086,194.598 193.5,192.5 Z"/></g>
<g><path style="opacity:1" fill="#5781c3" d="M 151.5,181.5 C 151.261,183.467 151.594,185.301 152.5,187C 156.821,187.499 161.154,187.666 165.5,187.5C 166.99,189.28 168.99,189.946 171.5,189.5C 171.5,190.5 171.5,191.5 171.5,192.5C 170.833,192.5 170.167,192.5 169.5,192.5C 166.344,192.163 163.011,192.163 159.5,192.5C 158.399,191.402 157.066,191.235 155.5,192C 157.037,193.11 157.703,194.61 157.5,196.5C 156.5,196.5 155.5,196.5 154.5,196.5C 154.5,195.5 154.5,194.5 154.5,193.5C 152.833,193.5 151.167,193.5 149.5,193.5C 146.67,193.306 144.004,192.639 141.5,191.5C 141.167,191.5 140.833,191.5 140.5,191.5C 139.659,189.621 139.325,187.621 139.5,185.5C 141.257,184.938 143.257,184.938 145.5,185.5C 147.333,185.415 148.666,184.748 149.5,183.5C 150.167,182.833 150.833,182.167 151.5,181.5 Z"/></g>
<g><path style="opacity:1" fill="#eab649" d="M 136.5,185.5 C 137.5,185.5 138.5,185.5 139.5,185.5C 139.325,187.621 139.659,189.621 140.5,191.5C 139.292,192.234 137.959,192.567 136.5,192.5C 136.768,190.901 136.434,189.568 135.5,188.5C 135.263,187.209 135.596,186.209 136.5,185.5 Z"/></g>
<g><path style="opacity:1" fill="#bd733f" d="M 134.5,207.5 C 135.833,207.5 137.167,207.5 138.5,207.5C 138.773,209.958 137.773,211.625 135.5,212.5C 134.548,210.955 134.215,209.288 134.5,207.5 Z"/></g>
</svg>
