<?xml version="1.0" encoding="UTF-8"?>
<!DOCTYPE svg PUBLIC "-//W3C//DTD SVG 1.1//EN" "http://www.w3.org/Graphics/SVG/1.1/DTD/svg11.dtd">
<svg xmlns="http://www.w3.org/2000/svg" version="1.1" width="500px" height="363px" style="shape-rendering:geometricPrecision; text-rendering:geometricPrecision; image-rendering:optimizeQuality; fill-rule:evenodd; clip-rule:evenodd" xmlns:xlink="http://www.w3.org/1999/xlink">
<g><path style="opacity:1" fill="#fefefe" d="M -0.5,-0.5 C 166.167,-0.5 332.833,-0.5 499.5,-0.5C 499.5,120.5 499.5,241.5 499.5,362.5C 332.833,362.5 166.167,362.5 -0.5,362.5C -0.5,241.5 -0.5,120.5 -0.5,-0.5 Z"/></g>
<g><path style="opacity:1" fill="#9ace78" d="M 222.5,121.5 C 224.042,120.837 225.709,120.17 227.5,119.5C 222.833,118.167 218.167,118.167 213.5,119.5C 215.291,120.17 216.958,120.837 218.5,121.5C 216.5,121.5 214.5,121.5 212.5,121.5C 212.5,120.167 212.5,118.833 212.5,117.5C 217.833,117.5 223.167,117.5 228.5,117.5C 228.5,118.833 228.5,120.167 228.5,121.5C 226.5,121.5 224.5,121.5 222.5,121.5 Z"/></g>
<g><path style="opacity:1" fill="#78bd48" d="M 253.5,117.5 C 258.167,117.5 262.833,117.5 267.5,117.5C 267.5,118.833 267.5,120.167 267.5,121.5C 264.167,121.5 260.833,121.5 257.5,121.5C 257.5,122.833 257.5,124.167 257.5,125.5C 260.5,125.5 263.5,125.5 266.5,125.5C 266.5,126.5 266.5,127.5 266.5,128.5C 263.5,128.5 260.5,128.5 257.5,128.5C 257.5,129.833 257.5,131.167 257.5,132.5C 260.833,132.5 264.167,132.5 267.5,132.5C 267.5,133.5 267.5,134.5 267.5,135.5C 262.833,135.5 258.167,135.5 253.5,135.5C 253.5,129.5 253.5,123.5 253.5,117.5 Z"/></g>
<g><path style="opacity:1" fill="#a5d385" d="M 235.5,125.5 C 234.532,123.393 234.198,121.059 234.5,118.5C 233.5,118.5 232.5,118.5 231.5,118.5C 231.5,124.167 231.5,129.833 231.5,135.5C 230.51,129.69 230.177,123.69 230.5,117.5C 232.167,117.5 233.833,117.5 235.5,117.5C 235.5,120.167 235.5,122.833 235.5,125.5 Z"/></g>
<g><path style="opacity:1" fill="#77bd47" d="M 244.5,135.5 C 244.5,133.167 244.5,130.833 244.5,128.5C 241.167,128.5 237.833,128.5 234.5,128.5C 234.5,130.833 234.5,133.167 234.5,135.5C 233.5,135.5 232.5,135.5 231.5,135.5C 231.5,129.833 231.5,124.167 231.5,118.5C 232.5,118.5 233.5,118.5 234.5,118.5C 234.198,121.059 234.532,123.393 235.5,125.5C 238.5,125.5 241.5,125.5 244.5,125.5C 244.5,122.833 244.5,120.167 244.5,117.5C 245.833,117.5 247.167,117.5 248.5,117.5C 248.5,123.5 248.5,129.5 248.5,135.5C 247.167,135.5 245.833,135.5 244.5,135.5 Z"/></g>
<g><path style="opacity:1" fill="#76bc45" d="M 273.5,125.5 C 292.833,125.5 312.167,125.5 331.5,125.5C 331.5,126.5 331.5,127.5 331.5,128.5C 312.167,128.5 292.833,128.5 273.5,128.5C 273.5,127.5 273.5,126.5 273.5,125.5 Z"/></g>
<g><path style="opacity:1" fill="#78be48" d="M 151.5,125.5 C 170.5,125.5 189.5,125.5 208.5,125.5C 208.5,126.5 208.5,127.5 208.5,128.5C 189.5,128.5 170.5,128.5 151.5,128.5C 151.5,127.5 151.5,126.5 151.5,125.5 Z"/></g>
<g><path style="opacity:1" fill="#74bb43" d="M 222.5,121.5 C 222.5,126.167 222.5,130.833 222.5,135.5C 221.167,135.5 219.833,135.5 218.5,135.5C 218.5,130.833 218.5,126.167 218.5,121.5C 216.958,120.837 215.291,120.17 213.5,119.5C 218.167,118.167 222.833,118.167 227.5,119.5C 225.709,120.17 224.042,120.837 222.5,121.5 Z"/></g>
<g><path style="opacity:1" fill="#bedfa8" d="M 244.5,135.5 C 243.539,133.735 243.205,131.735 243.5,129.5C 240.833,129.5 238.167,129.5 235.5,129.5C 235.795,131.735 235.461,133.735 234.5,135.5C 234.5,133.167 234.5,130.833 234.5,128.5C 237.833,128.5 241.167,128.5 244.5,128.5C 244.5,130.833 244.5,133.167 244.5,135.5 Z"/></g>
<g><path style="opacity:1" fill="#e3ba27" d="M 258.5,148.5 C 258.842,149.338 259.508,149.672 260.5,149.5C 262.833,152.5 265.5,155.167 268.5,157.5C 275.928,169.119 276.428,181.119 270,193.5C 257.679,208.934 242.512,212.434 224.5,204C 212.093,195.343 207.26,183.51 210,168.5C 211.319,164.528 213.153,160.861 215.5,157.5C 218.167,155.5 220.5,153.167 222.5,150.5C 224.027,150.573 225.027,149.906 225.5,148.5C 236.467,143.227 247.467,143.227 258.5,148.5 Z"/></g>
<g><path style="opacity:1" fill="#462513" d="M 225.5,148.5 C 223.973,148.427 222.973,149.094 222.5,150.5C 219.573,151.757 217.239,153.757 215.5,156.5C 213.59,146.584 217.59,143.084 227.5,146C 226.619,146.708 225.953,147.542 225.5,148.5 Z"/></g>
<g><path style="opacity:1" fill="#cf2234" d="M 193.5,207.5 C 182.833,207.5 172.167,207.5 161.5,207.5C 161.5,205.167 161.5,202.833 161.5,200.5C 162.089,193.515 162.422,186.515 162.5,179.5C 163.434,178.432 163.768,177.099 163.5,175.5C 159.5,175.5 155.5,175.5 151.5,175.5C 150.905,166.235 151.572,157.235 153.5,148.5C 170.503,147.879 187.503,147.213 204.5,146.5C 204.5,155.833 204.5,165.167 204.5,174.5C 201.167,174.5 197.833,174.5 194.5,174.5C 193.791,185.486 193.457,196.486 193.5,207.5 Z"/></g>
<g><path style="opacity:1" fill="#f5e6b3" d="M 225.5,148.5 C 225.027,149.906 224.027,150.573 222.5,150.5C 222.973,149.094 223.973,148.427 225.5,148.5 Z"/></g>
<g><path style="opacity:1" fill="#482715" d="M 268.5,156.5 C 266.431,153.427 263.764,151.094 260.5,149.5C 259.508,149.672 258.842,149.338 258.5,148.5C 258.047,147.542 257.381,146.708 256.5,146C 266.356,143.028 270.356,146.528 268.5,156.5 Z"/></g>
<g><path style="opacity:1" fill="#d4c9b1" d="M 260.5,149.5 C 263.764,151.094 266.431,153.427 268.5,156.5C 268.5,156.833 268.5,157.167 268.5,157.5C 265.5,155.167 262.833,152.5 260.5,149.5 Z"/></g>
<g><path style="opacity:1" fill="#6ecdde" d="M 305.5,147.5 C 310.346,147 314.846,148 319,150.5C 322.021,149.144 325.021,148.81 328,149.5C 334.579,162.844 335.246,176.51 330,190.5C 325.07,200.08 317.237,205.913 306.5,208C 300.167,208.667 293.833,208.667 287.5,208C 285.238,207.358 283.071,206.525 281,205.5C 281.874,201.267 284.374,198.1 288.5,196C 286.433,193.029 286.1,189.862 287.5,186.5C 294.476,189.529 301.143,189.029 307.5,185C 298.192,187.119 290.025,184.953 283,178.5C 278.11,169.879 277.277,160.879 280.5,151.5C 286.068,152.897 291.735,153.563 297.5,153.5C 296.586,164.877 301.253,168.043 311.5,163C 314.167,159 314.167,155 311.5,151C 308.981,150.414 306.981,149.247 305.5,147.5 Z"/></g>
<g><path style="opacity:1" fill="#e16e7b" d="M 153.5,148.5 C 151.572,157.235 150.905,166.235 151.5,175.5C 155.5,175.5 159.5,175.5 163.5,175.5C 163.768,177.099 163.434,178.432 162.5,179.5C 162.5,178.5 162.5,177.5 162.5,176.5C 158.5,176.5 154.5,176.5 150.5,176.5C 150.5,167.167 150.5,157.833 150.5,148.5C 151.5,148.5 152.5,148.5 153.5,148.5 Z"/></g>
<g><path style="opacity:1" fill="#42210b" d="M 166.5,150.5 C 172.704,150.314 174.037,152.814 170.5,158C 165.632,157.711 164.299,155.211 166.5,150.5 Z"/></g>
<g><path style="opacity:1" fill="#f0e1ac" d="M 222.5,150.5 C 220.5,153.167 218.167,155.5 215.5,157.5C 215.5,157.167 215.5,156.833 215.5,156.5C 217.239,153.757 219.573,151.757 222.5,150.5 Z"/></g>
<g><path style="opacity:1" fill="#4a4a4a" d="M 305.5,153.5 C 310.587,153.284 311.587,155.118 308.5,159C 304.537,159.118 303.537,157.284 305.5,153.5 Z"/></g>
<g><path style="opacity:1" fill="#42210a" d="M 188.5,153.5 C 193.262,154.092 194.596,156.592 192.5,161C 186.202,161.495 184.868,158.995 188.5,153.5 Z"/></g>
<g><path style="opacity:1" fill="#45210c" d="M 157.5,162.5 C 163.488,162.664 164.821,165.164 161.5,170C 155.403,170.147 154.07,167.647 157.5,162.5 Z"/></g>
<g><path style="opacity:1" fill="#49220d" d="M 172.5,163.5 C 179.536,162.603 181.203,165.103 177.5,171C 171.788,171.433 170.122,168.933 172.5,163.5 Z"/></g>
<g><path style="opacity:1" fill="#41200c" d="M 229.5,166.5 C 230.873,166.343 232.207,166.51 233.5,167C 232.069,167.465 230.903,168.299 230,169.5C 229.517,168.552 229.351,167.552 229.5,166.5 Z"/></g>
<g><path style="opacity:1" fill="#3c1c0b" d="M 251.5,167.5 C 252.209,166.596 253.209,166.263 254.5,166.5C 254.649,167.552 254.483,168.552 254,169.5C 253.292,168.619 252.458,167.953 251.5,167.5 Z"/></g>
<g><path style="opacity:1" fill="#fbf9f5" d="M 235.5,169.5 C 250.497,167.341 257.663,173.675 257,188.5C 252.558,196.636 245.725,199.802 236.5,198C 228.189,194.093 225.023,187.593 227,178.5C 229.362,174.973 232.196,171.973 235.5,169.5 Z"/></g>
<g><path style="opacity:1" fill="#44210c" d="M 183.5,174.5 C 189.488,174.664 190.821,177.164 187.5,182C 181.403,182.147 180.07,179.647 183.5,174.5 Z"/></g>
<g><path style="opacity:1" fill="#4c2c1a" d="M 244.5,181.5 C 243.833,181.5 243.167,181.5 242.5,181.5C 238.024,181.2 236.69,179.033 238.5,175C 241.669,174.022 244.503,174.522 247,176.5C 247.706,178.955 246.873,180.622 244.5,181.5 Z"/></g>
<g><path style="opacity:1" fill="#e3e0dd" d="M 239.5,175.5 C 241.337,175.639 241.67,176.306 240.5,177.5C 239.702,177.043 239.369,176.376 239.5,175.5 Z"/></g>
<g><path style="opacity:1" fill="#42210b" d="M 168.5,184.5 C 174.704,184.314 176.037,186.814 172.5,192C 167.632,191.711 166.299,189.211 168.5,184.5 Z"/></g>
<g><path style="opacity:1" fill="#948174" d="M 242.5,181.5 C 243.167,181.5 243.833,181.5 244.5,181.5C 244.785,184.829 244.118,187.829 242.5,190.5C 242.167,190.5 241.833,190.5 241.5,190.5C 242.403,187.609 242.736,184.609 242.5,181.5 Z"/></g>
<g><path style="opacity:1" fill="#684c3a" d="M 241.5,190.5 C 241.833,190.5 242.167,190.5 242.5,190.5C 246.042,191.518 249.209,190.518 252,187.5C 250.162,191.423 246.829,193.089 242,192.5C 237.607,193.053 234.107,191.553 231.5,188C 231.833,187.833 232.167,187.667 232.5,187.5C 234.028,188.861 235.695,190.028 237.5,191C 239.066,191.765 240.399,191.598 241.5,190.5 Z"/></g>
<g><path style="opacity:1" fill="#44210b" d="M 182.5,194.5 C 188.704,194.314 190.037,196.814 186.5,202C 180.95,201.635 179.617,199.135 182.5,194.5 Z"/></g>
<g><path style="opacity:1" fill="#e16c78" d="M 161.5,200.5 C 161.5,202.833 161.5,205.167 161.5,207.5C 172.167,207.5 182.833,207.5 193.5,207.5C 182.679,208.495 171.679,208.828 160.5,208.5C 160.194,205.615 160.527,202.948 161.5,200.5 Z"/></g>
<g><path style="opacity:1" fill="#492916" d="M 312.5,214.5 C 316.514,214.334 320.514,214.501 324.5,215C 330.158,216.829 331.992,220.663 330,226.5C 329.5,227 329,227.5 328.5,228C 324.974,229.337 321.308,229.837 317.5,229.5C 317.5,231.5 317.5,233.5 317.5,235.5C 315.833,235.5 314.167,235.5 312.5,235.5C 312.5,228.5 312.5,221.5 312.5,214.5 Z"/></g>
<g><path style="opacity:1" fill="#f8f8f6" d="M 317.5,218.5 C 319.857,218.337 322.19,218.503 324.5,219C 325.833,221 325.833,223 324.5,225C 322.19,225.497 319.857,225.663 317.5,225.5C 317.5,223.167 317.5,220.833 317.5,218.5 Z"/></g>
<g><path style="opacity:1" fill="#b3a69d" d="M 208.5,223.5 C 207.527,221.052 207.194,218.385 207.5,215.5C 206.167,215.5 204.833,215.5 203.5,215.5C 203.5,222.167 203.5,228.833 203.5,235.5C 202.509,228.687 202.175,221.687 202.5,214.5C 204.5,214.5 206.5,214.5 208.5,214.5C 208.5,217.5 208.5,220.5 208.5,223.5 Z"/></g>
<g><path style="opacity:1" fill="#452512" d="M 203.5,235.5 C 203.5,228.833 203.5,222.167 203.5,215.5C 204.833,215.5 206.167,215.5 207.5,215.5C 207.194,218.385 207.527,221.052 208.5,223.5C 211.833,223.5 215.167,223.5 218.5,223.5C 218.5,220.5 218.5,217.5 218.5,214.5C 220.167,214.5 221.833,214.5 223.5,214.5C 223.5,221.5 223.5,228.5 223.5,235.5C 221.833,235.5 220.167,235.5 218.5,235.5C 218.5,232.833 218.5,230.167 218.5,227.5C 214.833,227.5 211.167,227.5 207.5,227.5C 207.5,230.167 207.5,232.833 207.5,235.5C 206.167,235.5 204.833,235.5 203.5,235.5 Z"/></g>
<g><path style="opacity:1" fill="#492916" d="M 155.5,214.5 C 160.449,213.959 165.116,214.792 169.5,217C 167.149,219.697 164.316,220.197 161,218.5C 157.552,217.939 156.385,219.106 157.5,222C 162.136,222.362 166.303,223.862 170,226.5C 171.084,233.417 168.084,236.417 161,235.5C 157.279,235.987 154.112,234.987 151.5,232.5C 152.608,229.497 154.275,228.997 156.5,231C 159.482,231.498 162.482,231.665 165.5,231.5C 165.67,230.178 165.337,229.011 164.5,228C 160.424,227.524 156.59,226.358 153,224.5C 150.712,220.318 151.545,216.984 155.5,214.5 Z"/></g>
<g><path style="opacity:1" fill="#452512" d="M 262.5,214.5 C 268.324,213.588 273.49,214.922 278,218.5C 281.582,231.922 276.416,237.422 262.5,235C 253.214,228.169 253.214,221.336 262.5,214.5 Z"/></g>
<g><path style="opacity:1" fill="#f5f3f2" d="M 263.5,218.5 C 267.257,218.071 270.757,218.737 274,220.5C 276.666,227.004 274.499,230.671 267.5,231.5C 262.881,231.548 260.547,229.214 260.5,224.5C 260.628,222.045 261.628,220.045 263.5,218.5 Z"/></g>
</svg>
